<?xml version="1.0" encoding="UTF-8"?>
<svg xmlns="http://www.w3.org/2000/svg" xmlns:xlink="http://www.w3.org/1999/xlink" width="64pt" height="64pt" viewBox="0 0 64 64" version="1.1">
<g id="surface510415">
<path style=" stroke:none;fill-rule:nonzero;fill:rgb(16.078431%,38.431373%,100%);fill-opacity:1;" d="M 37 56 C 36.398438 56 35.800781 55.648438 35.601562 55.050781 L 22 18.75 L 8.398438 55 C 8.101562 55.800781 7.25 56.148438 6.449219 55.898438 C 5.648438 55.601562 5.300781 54.75 5.550781 53.949219 L 20.550781 13.949219 C 20.75 13.351562 21.351562 13 21.949219 13 C 22.550781 13 23.148438 13.398438 23.351562 13.949219 L 38.351562 53.949219 C 38.648438 54.75 38.25 55.601562 37.449219 55.898438 C 37.351562 55.949219 37.199219 56 37 56 Z M 37 56 "/>
<path style=" stroke:none;fill-rule:nonzero;fill:rgb(16.078431%,38.431373%,100%);fill-opacity:1;" d="M 33.050781 45.5 L 10.949219 45.5 C 10.101562 45.5 9.449219 44.851562 9.449219 44 C 9.449219 43.148438 10.101562 42.5 10.949219 42.5 L 33.050781 42.5 C 33.898438 42.5 34.550781 43.148438 34.550781 44 C 34.550781 44.851562 33.898438 45.5 33.050781 45.5 Z M 48.101562 56 C 44.5 56 41.601562 53.101562 41.601562 49.5 L 41.601562 44.5 C 41.601562 40.898438 44.5 38 48.101562 38 C 51.699219 38 54.601562 40.898438 54.601562 44.5 L 54.601562 49.5 C 54.601562 53.101562 51.699219 56 48.101562 56 Z M 48.101562 41 C 46.148438 41 44.601562 42.550781 44.601562 44.5 L 44.601562 49.5 C 44.601562 51.449219 46.148438 53 48.101562 53 C 50.050781 53 51.601562 51.449219 51.601562 49.5 L 51.601562 44.5 C 51.601562 42.550781 50.050781 41 48.101562 41 Z M 48.101562 41 "/>
<path style=" stroke:none;fill-rule:nonzero;fill:rgb(16.078431%,38.431373%,100%);fill-opacity:1;" d="M 57 56 C 54.050781 56 51.601562 53.601562 51.601562 50.601562 L 51.601562 49.5 C 51.601562 48.648438 52.25 48 53.101562 48 C 53.949219 48 54.601562 48.648438 54.601562 49.5 L 54.601562 50.601562 C 54.601562 51.898438 55.648438 53 57 53 C 57.851562 53 58.5 53.648438 58.5 54.5 C 58.5 55.351562 57.851562 56 57 56 Z M 57 56 "/>
</g>
</svg>
