<?xml version="1.0" encoding="UTF-8"?>
<svg xmlns="http://www.w3.org/2000/svg" xmlns:xlink="http://www.w3.org/1999/xlink" width="30pt" height="30pt" viewBox="0 0 30 30" version="1.1">
<g id="surface122129">
<path style=" stroke:none;fill-rule:nonzero;fill:rgb(16.078431%,38.431373%,100%);fill-opacity:1;" d="M 20 3 C 19.644531 3 19.3125 3.191406 19.136719 3.5 L 19.132812 3.5 L 14.757812 9.898438 L 20.105469 15.246094 L 26.535156 10.84375 L 26.539062 10.84375 C 26.824219 10.660156 27 10.34375 27 10 C 27 9.734375 26.894531 9.476562 26.703125 9.289062 L 20.726562 3.3125 C 20.539062 3.113281 20.273438 3 20 3 Z M 10.109375 11 C 8.621094 11 7.132812 11.566406 6 12.703125 L 10.941406 17.644531 L 4.292969 24.292969 C 4.03125 24.542969 3.925781 24.917969 4.019531 25.265625 C 4.109375 25.617188 4.382812 25.890625 4.734375 25.980469 C 5.082031 26.074219 5.457031 25.96875 5.707031 25.707031 L 12.355469 19.058594 L 17.296875 24 C 19.566406 21.730469 19.566406 18.050781 17.296875 15.78125 L 14.214844 12.699219 C 13.082031 11.566406 11.597656 11 10.109375 11 Z M 10.109375 11 "/>
</g>
</svg>
