<?xml version="1.0" encoding="UTF-8"?>
<svg xmlns="http://www.w3.org/2000/svg" xmlns:xlink="http://www.w3.org/1999/xlink" width="64pt" height="64pt" viewBox="0 0 64 64" version="1.1">
<g id="surface169042">
<path style=" stroke:none;fill-rule:nonzero;fill:rgb(100%,100%,100%);fill-opacity:1;" d="M 32 7 C 18.191406 7 7 18.191406 7 32 C 7 45.808594 18.191406 57 32 57 C 45.808594 57 57 45.808594 57 32 C 57 18.191406 45.808594 7 32 7 Z M 32 7 "/>
<path style=" stroke:none;fill-rule:nonzero;fill:rgb(16.078431%,47.45098%,100%);fill-opacity:1;" d="M 52 17 C 48.398438 12.199219 43.101562 8.75 37 7.5 L 37 39.5 L 44.5 34.5 L 52 39.5 Z M 52 17 "/>
<path style=" stroke:none;fill-rule:nonzero;fill:rgb(100%,100%,100%);fill-opacity:1;" d="M 47 2 L 47 32 L 39.5 27 L 32 32 L 32 -3 "/>
<path style=" stroke:none;fill-rule:nonzero;fill:rgb(26.666667%,29.411765%,32.941176%);fill-opacity:1;" d="M 32 58.5 C 17.398438 58.5 5.5 46.601562 5.5 32 C 5.5 17.398438 17.398438 5.5 32 5.5 C 32.851562 5.5 33.5 6.148438 33.5 7 C 33.5 7.851562 32.851562 8.5 32 8.5 C 19.050781 8.5 8.5 19.050781 8.5 32 C 8.5 44.949219 19.050781 55.5 32 55.5 C 44.949219 55.5 55.5 44.949219 55.5 32 C 55.5 24.550781 52.050781 17.699219 46.101562 13.199219 C 45.449219 12.699219 45.300781 11.75 45.800781 11.101562 C 46.300781 10.449219 47.25 10.300781 47.898438 10.800781 C 54.648438 15.851562 58.5 23.601562 58.5 32 C 58.5 46.601562 46.601562 58.5 32 58.5 Z M 32 58.5 "/>
<path style=" stroke:none;fill-rule:nonzero;fill:rgb(26.666667%,29.411765%,32.941176%);fill-opacity:1;" d="M 32 33.5 C 31.75 33.5 31.5 33.449219 31.300781 33.300781 C 30.800781 33.050781 30.5 32.550781 30.5 32 L 30.5 7 C 30.5 6.148438 31.148438 5.5 32 5.5 C 32.851562 5.5 33.5 6.148438 33.5 7 L 33.5 29.199219 L 38.648438 25.75 C 39.148438 25.398438 39.800781 25.398438 40.300781 25.75 L 42.699219 27.351562 C 43.398438 27.800781 43.601562 28.75 43.101562 29.449219 C 42.648438 30.148438 41.699219 30.351562 41 29.851562 L 39.5 28.800781 L 32.851562 33.25 C 32.601562 33.398438 32.300781 33.5 32 33.5 Z M 47 33.5 C 46.898438 33.5 46.800781 33.5 46.699219 33.449219 C 46.601562 33.449219 46.5 33.398438 46.398438 33.351562 C 46.300781 33.300781 46.25 33.25 46.148438 33.199219 C 46.050781 33.148438 46 33.101562 45.898438 33 C 45.851562 32.949219 45.75 32.851562 45.699219 32.75 C 45.648438 32.648438 45.601562 32.601562 45.550781 32.5 C 45.5 32.398438 45.5 32.300781 45.449219 32.199219 C 45.449219 32.101562 45.398438 32 45.398438 31.898438 C 45.398438 31.800781 45.398438 31.699219 45.449219 31.601562 C 45.449219 31.5 45.5 31.398438 45.550781 31.300781 C 45.601562 31.199219 45.648438 31.148438 45.699219 31.050781 C 45.75 30.949219 45.800781 30.898438 45.898438 30.800781 C 46.25 30.449219 46.75 30.300781 47.25 30.398438 C 47.351562 30.398438 47.449219 30.449219 47.550781 30.5 C 47.648438 30.550781 47.75 30.601562 47.800781 30.648438 C 47.898438 30.699219 47.949219 30.75 48.050781 30.851562 C 48.101562 30.898438 48.199219 31 48.25 31.101562 C 48.300781 31.199219 48.351562 31.25 48.398438 31.351562 C 48.449219 31.449219 48.449219 31.550781 48.5 31.648438 C 48.5 31.75 48.550781 31.851562 48.550781 31.949219 C 48.550781 32.050781 48.550781 32.148438 48.5 32.25 C 48.5 32.351562 48.449219 32.449219 48.398438 32.550781 C 48.351562 32.648438 48.300781 32.75 48.25 32.800781 C 48.199219 32.898438 48.148438 32.949219 48.050781 33.050781 C 47.800781 33.351562 47.398438 33.5 47 33.5 Z M 47 28 C 46.148438 28 45.5 27.351562 45.5 26.5 L 45.5 12 C 45.5 11.148438 46.148438 10.5 47 10.5 C 47.851562 10.5 48.5 11.148438 48.5 12 L 48.5 26.5 C 48.5 27.351562 47.851562 28 47 28 Z M 47 28 "/>
</g>
</svg>
