<?xml version="1.0" encoding="UTF-8"?>
<svg xmlns="http://www.w3.org/2000/svg" xmlns:xlink="http://www.w3.org/1999/xlink" width="64pt" height="64pt" viewBox="0 0 64 64" version="1.1">
<g id="surface109901">
<path style=" stroke:none;fill-rule:nonzero;fill:rgb(100%,100%,100%);fill-opacity:1;" d="M 48.5 54.5 L 11 54.5 C 9.601562 54.5 8.5 53.398438 8.5 52 L 8.5 12 C 8.5 10.601562 9.601562 9.5 11 9.5 L 51 9.5 C 52.398438 9.5 53.5 10.601562 53.5 12 L 53.5 49.5 C 53.5 52.25 51.25 54.5 48.5 54.5 Z M 48.5 54.5 "/>
<path style=" stroke:none;fill-rule:nonzero;fill:rgb(26.666667%,29.411765%,32.941176%);fill-opacity:1;" d="M 40 56 L 11 56 C 8.800781 56 7 54.199219 7 52 L 7 12 C 7 9.800781 8.800781 8 11 8 L 20.5 8 C 21.351562 8 22 8.648438 22 9.5 C 22 10.351562 21.351562 11 20.5 11 L 11 11 C 10.449219 11 10 11.449219 10 12 L 10 52 C 10 52.550781 10.449219 53 11 53 L 40 53 C 40.851562 53 41.5 53.648438 41.5 54.5 C 41.5 55.351562 40.851562 56 40 56 Z M 40 56 "/>
<path style=" stroke:none;fill-rule:nonzero;fill:rgb(26.666667%,29.411765%,32.941176%);fill-opacity:1;" d="M 51 8 L 27 8 C 26.148438 8 25.5 8.648438 25.5 9.5 L 25.5 19 C 25.5 19.851562 26.148438 20.5 27 20.5 L 35 20.5 C 35.851562 20.5 36.5 19.851562 36.5 19 L 36.5 11 L 51 11 C 51.550781 11 52 11.449219 52 12 L 52 31 C 52 31.851562 52.648438 32.5 53.5 32.5 C 54.351562 32.5 55 31.851562 55 31 L 55 12 C 55 9.800781 53.199219 8 51 8 Z M 51 8 "/>
<path style=" stroke:none;fill-rule:nonzero;fill:rgb(16.078431%,38.431373%,100%);fill-opacity:1;" d="M 53.5 36 C 47.976562 36 43.5 40.476562 43.5 46 C 43.5 51.523438 47.976562 56 53.5 56 C 59.023438 56 63.5 51.523438 63.5 46 C 63.5 40.476562 59.023438 36 53.5 36 Z M 53.5 36 "/>
<path style=" stroke:none;fill-rule:nonzero;fill:rgb(100%,100%,100%);fill-opacity:1;" d="M 57 47.5 L 50 47.5 C 49.148438 47.5 48.5 46.851562 48.5 46 C 48.5 45.148438 49.148438 44.5 50 44.5 L 57 44.5 C 57.851562 44.5 58.5 45.148438 58.5 46 C 58.5 46.851562 57.851562 47.5 57 47.5 Z M 57 47.5 "/>
<path style=" stroke:none;fill-rule:nonzero;fill:rgb(100%,100%,100%);fill-opacity:1;" d="M 53.5 51 C 52.648438 51 52 50.351562 52 49.5 L 52 42.5 C 52 41.648438 52.648438 41 53.5 41 C 54.351562 41 55 41.648438 55 42.5 L 55 49.5 C 55 50.351562 54.351562 51 53.5 51 Z M 53.5 51 "/>
</g>
</svg>
