<?xml version="1.0" encoding="UTF-8"?>
<svg xmlns="http://www.w3.org/2000/svg" xmlns:xlink="http://www.w3.org/1999/xlink" width="64pt" height="64pt" viewBox="0 0 64 64" version="1.1">
<g id="surface233535">
<path style=" stroke:none;fill-rule:nonzero;fill:rgb(26.666667%,54.117647%,100%);fill-opacity:1;" d="M 9.5 18.550781 L 42.851562 18.550781 C 45.601562 18.550781 47.851562 20.800781 47.851562 23.550781 L 47.851562 42.449219 C 47.851562 45.199219 45.601562 47.449219 42.851562 47.449219 L 14.898438 47.449219 L 14.898438 57.449219 L 4.5 47.449219 L 4.5 23.550781 C 4.5 20.75 6.75 18.550781 9.5 18.550781 Z M 9.5 18.550781 "/>
<path style=" stroke:none;fill-rule:nonzero;fill:rgb(16.078431%,47.45098%,100%);fill-opacity:1;" d="M 13.648438 35.449219 L 13.648438 18.851562 L 42.898438 18.851562 L 42.898438 42.449219 L 20.648438 42.449219 C 16.75 42.449219 13.648438 39.300781 13.648438 35.449219 Z M 13.648438 35.449219 "/>
<path style=" stroke:none;fill-rule:nonzero;fill:rgb(27.058824%,29.411765%,32.941176%);fill-opacity:1;" d="M 14.898438 58.949219 C 14.550781 58.949219 14.148438 58.800781 13.851562 58.550781 L 3.449219 48.550781 C 3.148438 48.25 3 47.851562 3 47.449219 L 3 23.550781 C 3 19.949219 5.898438 17.050781 9.5 17.050781 L 42.851562 17.050781 C 46.449219 17.050781 49.351562 19.949219 49.351562 23.550781 L 49.351562 42.449219 C 49.351562 46.050781 46.449219 48.949219 42.851562 48.949219 L 14.898438 48.949219 C 14.050781 48.949219 13.398438 48.300781 13.398438 47.449219 C 13.398438 46.601562 14.050781 45.949219 14.898438 45.949219 L 42.851562 45.949219 C 44.800781 45.949219 46.351562 44.398438 46.351562 42.449219 L 46.351562 23.550781 C 46.351562 21.601562 44.800781 20.050781 42.851562 20.050781 L 9.5 20.050781 C 7.550781 20.050781 6 21.601562 6 23.550781 L 6 46.851562 L 15.949219 56.398438 C 16.550781 56.949219 16.550781 57.898438 16 58.5 C 15.699219 58.800781 15.300781 58.949219 14.898438 58.949219 Z M 14.898438 58.949219 "/>
<path style=" stroke:none;fill-rule:nonzero;fill:rgb(100%,100%,100%);fill-opacity:1;" d="M 54.5 8.851562 L 23.648438 8.851562 C 20.898438 8.851562 18.648438 11.101562 18.648438 13.851562 L 18.648438 32.75 C 18.648438 35.5 20.898438 37.75 23.648438 37.75 L 54.101562 37.75 L 59.5 47.949219 L 59.5 13.851562 C 59.5 11.101562 57.25 8.851562 54.5 8.851562 Z M 54.5 8.851562 "/>
<path style=" stroke:none;fill-rule:nonzero;fill:rgb(27.058824%,29.411765%,32.941176%);fill-opacity:1;" d="M 59.5 49.449219 C 58.648438 49.449219 58 48.800781 58 47.949219 L 58 13.851562 C 58 11.898438 56.449219 10.351562 54.5 10.351562 L 23.648438 10.351562 C 21.699219 10.351562 20.148438 11.898438 20.148438 13.851562 L 20.148438 32.75 C 20.148438 34.699219 21.699219 36.25 23.648438 36.25 L 54.101562 36.25 C 54.949219 36.25 55.601562 36.898438 55.601562 37.75 C 55.601562 38.601562 54.949219 39.25 54.101562 39.25 L 23.648438 39.25 C 20.050781 39.25 17.148438 36.351562 17.148438 32.75 L 17.148438 13.851562 C 17.148438 10.25 20.050781 7.351562 23.648438 7.351562 L 54.5 7.351562 C 58.101562 7.351562 61 10.25 61 13.851562 L 61 48 C 61 48.800781 60.351562 49.449219 59.5 49.449219 Z M 59.5 49.449219 "/>
<path style=" stroke:none;fill-rule:nonzero;fill:rgb(16.078431%,38.431373%,100%);fill-opacity:1;" d="M 28.148438 21.148438 C 26.824219 21.148438 25.75 22.222656 25.75 23.550781 C 25.75 24.875 26.824219 25.949219 28.148438 25.949219 C 29.476562 25.949219 30.550781 24.875 30.550781 23.550781 C 30.550781 22.222656 29.476562 21.148438 28.148438 21.148438 Z M 37.800781 21.148438 C 36.472656 21.148438 35.398438 22.222656 35.398438 23.550781 C 35.398438 24.875 36.472656 25.949219 37.800781 25.949219 C 39.125 25.949219 40.199219 24.875 40.199219 23.550781 C 40.199219 22.222656 39.125 21.148438 37.800781 21.148438 Z M 47.449219 21.148438 C 46.125 21.148438 45.050781 22.222656 45.050781 23.550781 C 45.050781 24.875 46.125 25.949219 47.449219 25.949219 C 48.777344 25.949219 49.851562 24.875 49.851562 23.550781 C 49.851562 22.222656 48.777344 21.148438 47.449219 21.148438 Z M 47.449219 21.148438 "/>
</g>
</svg>
