<?xml version="1.0"?>
<svg xmlns="http://www.w3.org/2000/svg" id="Layer_3" enable-background="new 0 0 64 64" height="512px" viewBox="0 0 64 64" width="512px" class=""><g><g><path d="m47 62h-30c-2.209 0-4-1.791-4-4v-24c0-2.209 1.791-4 4-4h30c2.209 0 4 1.791 4 4v24c0 2.209-1.791 4-4 4z" fill="#a0a8b3" data-original="#A0A8B3" class="" style="fill:#1273EB" data-old_color="#a0a8b3"/><path d="m47 30h-30c-2.209 0-4 1.791-4 4v21.271c2.098.476 4.271.729 6.5.729 14.451 0 26.62-10.507 30.33-24.826-.724-.725-1.724-1.174-2.83-1.174z" fill="#b3b9c2" data-original="#B3B9C2" class="" style="fill:#629CF3" data-old_color="#b3b9c2"/><path d="m13 38h-4c-1.105 0-2 .895-2 2v12c0 1.105.895 2 2 2h4z" fill="#8892a0" data-original="#8892A0" class="active-path" style="fill:#87A5CF" data-old_color="#8892a0"/><path d="m26 16v-12c0-1.105-.895-2-2-2h-20c-1.105 0-2 .895-2 2v12c0 1.105.895 2 2 2h9l4 4v-4h7c1.105 0 2-.895 2-2z" fill="#8bd2f5" data-original="#8BD2F5" class=""/><path d="m24.878 2.211c-.266-.131-.561-.211-.878-.211h-20c-1.105 0-2 .895-2 2v12c0 .183.033.357.079.526 10.086-1.577 18.488-6.996 22.799-14.315z" fill="#b9e4f9" data-original="#B9E4F9" class=""/><path d="m38 20v-12c0-1.105.895-2 2-2h20c1.105 0 2 .895 2 2v12c0 1.105-.895 2-2 2h-9l-4 4v-4h-7c-1.105 0-2-.895-2-2z" fill="#8bd2f5" data-original="#8BD2F5" class=""/><path d="m60.151 6.015c-.051-.004-.099-.015-.151-.015h-20c-1.105 0-2 .895-2 2v12c0 .364.104.7.274.994 10.437-.109 19.197-6.412 21.877-14.979z" fill="#b9e4f9" data-original="#B9E4F9" class=""/><path d="m51 38h4c1.105 0 2 .895 2 2v12c0 1.105-.895 2-2 2h-4z" fill="#8892a0" data-original="#8892A0" class="active-path" style="fill:#87A5CF" data-old_color="#8892a0"/><g fill="#ebf7fe"><path d="m23 48h18v1c0 4.971-4.029 9-9 9-4.971 0-9-4.029-9-9z" data-original="#EBF7FE" class=""/><circle cx="22" cy="41" r="3" data-original="#EBF7FE" class=""/><circle cx="42" cy="41" r="3" data-original="#EBF7FE" class=""/></g><path d="m23 26h18v4h-18z" fill="#8892a0" data-original="#8892A0" class="active-path" style="fill:#87A5CF" data-old_color="#8892a0"/><g><path d="m31 21h2v5h-2z" fill="#a0a8b3" data-original="#A0A8B3" class="" style="fill:#1273EB" data-old_color="#a0a8b3"/></g><circle cx="32" cy="19" fill="#4472b0" r="3" data-original="#4472B0" class="" style="fill:#4472B0"/><g><path d="m5 5h18v2h-18z" fill="#fff" data-original="#FFF" class="" style="fill:#FFFFFF" data-old_color="#fff"/></g><g><path d="m5 13h18v2h-18z" fill="#fff" data-original="#FFF" class="" style="fill:#FFFFFF" data-old_color="#fff"/></g><g><path d="m7 9h14v2h-14z" fill="#fff" data-original="#FFF" class="" style="fill:#FFFFFF" data-old_color="#fff"/></g><g><path d="m41 9h18v2h-18z" fill="#fff" data-original="#FFF" class="" style="fill:#FFFFFF" data-old_color="#fff"/></g><g><path d="m41 17h18v2h-18z" fill="#fff" data-original="#FFF" class="" style="fill:#FFFFFF" data-old_color="#fff"/></g><g><path d="m43 13h14v2h-14z" fill="#fff" data-original="#FFF" class="" style="fill:#FFFFFF" data-old_color="#fff"/></g></g></g> </svg>
