<?xml version="1.0" encoding="UTF-8"?>
<svg xmlns="http://www.w3.org/2000/svg" xmlns:xlink="http://www.w3.org/1999/xlink" width="64pt" height="64pt" viewBox="0 0 64 64" version="1.1">
<g id="surface162562">
<path style=" stroke:none;fill-rule:nonzero;fill:rgb(100%,100%,100%);fill-opacity:1;" d="M 32 7 C 18.191406 7 7 18.191406 7 32 C 7 45.808594 18.191406 57 32 57 C 45.808594 57 57 45.808594 57 32 C 57 18.191406 45.808594 7 32 7 Z M 32 7 "/>
<path style=" stroke:none;fill-rule:nonzero;fill:rgb(26.666667%,29.411765%,32.941176%);fill-opacity:1;" d="M 32 58.5 C 17.398438 58.5 5.5 46.601562 5.5 32 C 5.5 17.398438 17.398438 5.5 32 5.5 C 46.601562 5.5 58.5 17.398438 58.5 32 C 58.5 46.601562 46.601562 58.5 32 58.5 Z M 32 8.5 C 19.050781 8.5 8.5 19.050781 8.5 32 C 8.5 44.949219 19.050781 55.5 32 55.5 C 44.949219 55.5 55.5 44.949219 55.5 32 C 55.5 19.050781 44.949219 8.5 32 8.5 Z M 32 8.5 "/>
<path style=" stroke:none;fill-rule:nonzero;fill:rgb(16.078431%,47.45098%,100%);fill-opacity:1;" d="M 44.5 33.5 L 32 33.5 C 31.148438 33.5 30.5 32.851562 30.5 32 L 30.5 14.5 C 30.5 13.648438 31.148438 13 32 13 C 32.851562 13 33.5 13.648438 33.5 14.5 L 33.5 30.5 L 44.5 30.5 C 45.351562 30.5 46 31.148438 46 32 C 46 32.851562 45.351562 33.5 44.5 33.5 Z M 44.5 33.5 "/>
<path style=" stroke:none;fill-rule:nonzero;fill:rgb(100%,100%,100%);fill-opacity:1;" d="M 32 28.5 C 30.066406 28.5 28.5 30.066406 28.5 32 C 28.5 33.933594 30.066406 35.5 32 35.5 C 33.933594 35.5 35.5 33.933594 35.5 32 C 35.5 30.066406 33.933594 28.5 32 28.5 Z M 32 28.5 "/>
<path style=" stroke:none;fill-rule:nonzero;fill:rgb(16.078431%,47.45098%,100%);fill-opacity:1;" d="M 32 37 C 29.25 37 27 34.75 27 32 C 27 29.25 29.25 27 32 27 C 34.75 27 37 29.25 37 32 C 37 34.75 34.75 37 32 37 Z M 32 30 C 30.898438 30 30 30.898438 30 32 C 30 33.101562 30.898438 34 32 34 C 33.101562 34 34 33.101562 34 32 C 34 30.898438 33.101562 30 32 30 Z M 32 30 "/>
</g>
</svg>
