<?xml version="1.0" encoding="UTF-8"?>
<svg xmlns="http://www.w3.org/2000/svg" xmlns:xlink="http://www.w3.org/1999/xlink" width="64pt" height="64pt" viewBox="0 0 64 64" version="1.1">
<g id="surface102775">
<path style=" stroke:none;fill-rule:nonzero;fill:rgb(100%,100%,100%);fill-opacity:1;" d="M 52 39.5 C 52 50.546875 43.046875 59.5 32 59.5 C 20.953125 59.5 12 50.546875 12 39.5 C 12 28.453125 20.953125 19.5 32 19.5 C 43.046875 19.5 52 28.453125 52 39.5 Z M 52 39.5 "/>
<path style=" stroke:none;fill-rule:nonzero;fill:rgb(26.666667%,29.411765%,32.941176%);fill-opacity:1;" d="M 32 15.5 C 28.949219 15.5 26.5 13.050781 26.5 10 C 26.5 6.949219 28.949219 4.5 32 4.5 C 35.050781 4.5 37.5 6.949219 37.5 10 C 37.5 13.050781 35.050781 15.5 32 15.5 Z M 32 7.5 C 30.601562 7.5 29.5 8.601562 29.5 10 C 29.5 11.398438 30.601562 12.5 32 12.5 C 33.398438 12.5 34.5 11.398438 34.5 10 C 34.5 8.601562 33.398438 7.5 32 7.5 Z M 32 7.5 "/>
<path style=" stroke:none;fill-rule:nonzero;fill:rgb(26.666667%,29.411765%,32.941176%);fill-opacity:1;" d="M 32 61 C 20.148438 61 10.5 51.351562 10.5 39.5 C 10.5 27.648438 20.148438 18 32 18 C 43.851562 18 53.5 27.648438 53.5 39.5 C 53.5 51.351562 43.851562 61 32 61 Z M 32 21 C 21.800781 21 13.5 29.300781 13.5 39.5 C 13.5 49.699219 21.800781 58 32 58 C 42.199219 58 50.5 49.699219 50.5 39.5 C 50.5 29.300781 42.199219 21 32 21 Z M 32 21 "/>
<path style=" stroke:none;fill-rule:nonzero;fill:rgb(16.078431%,38.431373%,100%);fill-opacity:1;" d="M 25 48 C 24.601562 48 24.25 47.851562 23.949219 47.550781 C 23.351562 46.949219 23.351562 46 23.949219 45.449219 L 27.449219 41.949219 C 28.050781 41.351562 29 41.351562 29.550781 41.949219 C 30.148438 42.550781 30.148438 43.5 29.550781 44.050781 L 26.050781 47.550781 C 25.800781 47.851562 25.398438 48 25 48 Z M 25 48 "/>
<path style=" stroke:none;fill-rule:nonzero;fill:rgb(16.078431%,38.431373%,100%);fill-opacity:1;" d="M 35.5 37.5 C 35.101562 37.5 34.75 37.351562 34.449219 37.050781 C 33.851562 36.449219 33.851562 35.5 34.449219 34.949219 L 37.949219 31.449219 C 38.550781 30.851562 39.5 30.851562 40.050781 31.449219 C 40.648438 32.050781 40.648438 33 40.050781 33.550781 L 36.550781 37.050781 C 36.25 37.351562 35.898438 37.5 35.5 37.5 Z M 35.5 37.5 "/>
<path style=" stroke:none;fill-rule:nonzero;fill:rgb(26.666667%,29.411765%,32.941176%);fill-opacity:1;" d="M 32 41 C 31.601562 41 31.199219 40.851562 30.949219 40.550781 C 30.648438 40.300781 30.5 39.898438 30.5 39.5 C 30.5 39.398438 30.5 39.300781 30.550781 39.199219 C 30.550781 39.101562 30.601562 39 30.648438 38.898438 C 30.699219 38.800781 30.75 38.75 30.800781 38.648438 C 30.851562 38.550781 30.898438 38.5 31 38.398438 C 31.550781 37.851562 32.550781 37.851562 33.101562 38.398438 C 33.148438 38.449219 33.25 38.550781 33.300781 38.648438 C 33.351562 38.75 33.398438 38.800781 33.449219 38.898438 C 33.5 39 33.5 39.101562 33.550781 39.199219 C 33.550781 39.300781 33.601562 39.398438 33.601562 39.5 C 33.601562 39.898438 33.449219 40.300781 33.148438 40.550781 C 32.800781 40.851562 32.398438 41 32 41 Z M 32 41 "/>
</g>
</svg>
