<?xml version="1.0" encoding="UTF-8"?>
<svg xmlns="http://www.w3.org/2000/svg" xmlns:xlink="http://www.w3.org/1999/xlink" width="64pt" height="64pt" viewBox="0 0 64 64" version="1.1">
<g id="surface163959">
<path style=" stroke:none;fill-rule:nonzero;fill:rgb(27.058824%,29.411765%,32.941176%);fill-opacity:1;" d="M 47 56 C 46.398438 56 45.800781 55.648438 45.601562 55 L 34.398438 25 C 34.101562 24.199219 34.5 23.351562 35.300781 23.050781 C 36.050781 22.75 36.949219 23.148438 37.25 23.949219 L 48.449219 53.949219 C 48.75 54.75 48.351562 55.601562 47.550781 55.898438 C 47.351562 55.949219 47.148438 56 47 56 Z M 17 56 C 16.851562 56 16.648438 55.949219 16.5 55.898438 C 15.699219 55.601562 15.351562 54.75 15.601562 53.949219 L 26.851562 23.699219 C 27.148438 22.898438 28 22.550781 28.800781 22.800781 C 29.601562 23.101562 29.949219 23.949219 29.699219 24.75 L 18.398438 55 C 18.199219 55.648438 17.601562 56 17 56 Z M 32 19.5 C 29.25 19.5 27 17.25 27 14.5 C 27 11.75 29.25 9.5 32 9.5 C 34.75 9.5 37 11.75 37 14.5 C 37 17.25 34.75 19.5 32 19.5 Z M 32 12.5 C 30.898438 12.5 30 13.398438 30 14.5 C 30 15.601562 30.898438 16.5 32 16.5 C 33.101562 16.5 34 15.601562 34 14.5 C 34 13.398438 33.101562 12.5 32 12.5 Z M 32 12.5 "/>
<path style=" stroke:none;fill-rule:nonzero;fill:rgb(27.058824%,29.411765%,32.941176%);fill-opacity:1;" d="M 32 12.5 C 31.148438 12.5 30.5 11.851562 30.5 11 L 30.5 6 C 30.5 5.148438 31.148438 4.5 32 4.5 C 32.851562 4.5 33.5 5.148438 33.5 6 L 33.5 11 C 33.5 11.851562 32.851562 12.5 32 12.5 Z M 32 12.5 "/>
<path style=" stroke:none;fill-rule:nonzero;fill:rgb(16.078431%,47.45098%,100%);fill-opacity:1;" d="M 32 61 C 28.351562 61 24.648438 60.148438 21.351562 58.5 C 20.601562 58.148438 20.300781 57.25 20.699219 56.5 C 21.050781 55.75 21.949219 55.449219 22.699219 55.851562 C 28.550781 58.75 35.5 58.75 41.351562 55.851562 C 42.101562 55.5 43 55.800781 43.351562 56.5 C 43.699219 57.25 43.398438 58.148438 42.699219 58.5 C 39.351562 60.148438 35.648438 61 32 61 Z M 32 61 "/>
<path style=" stroke:none;fill-rule:nonzero;fill:rgb(27.058824%,29.411765%,32.941176%);fill-opacity:1;" d="M 49 41.5 L 46.5 41.5 C 45.648438 41.5 45 40.851562 45 40 C 45 39.148438 45.648438 38.5 46.5 38.5 L 49 38.5 C 49.851562 38.5 50.5 39.148438 50.5 40 C 50.5 40.851562 49.851562 41.5 49 41.5 Z M 36.601562 41.5 L 27.398438 41.5 C 26.550781 41.5 25.898438 40.851562 25.898438 40 C 25.898438 39.148438 26.550781 38.5 27.398438 38.5 L 36.601562 38.5 C 37.449219 38.5 38.101562 39.148438 38.101562 40 C 38.101562 40.851562 37.398438 41.5 36.601562 41.5 Z M 36.601562 41.5 "/>
<path style=" stroke:none;fill-rule:nonzero;fill:rgb(27.058824%,29.411765%,32.941176%);fill-opacity:1;" d="M 32 46.101562 C 31.148438 46.101562 30.5 45.449219 30.5 44.601562 L 30.5 35.398438 C 30.5 34.550781 31.148438 33.898438 32 33.898438 C 32.851562 33.898438 33.5 34.550781 33.5 35.398438 L 33.5 44.601562 C 33.5 45.398438 32.851562 46.101562 32 46.101562 Z M 17.398438 41.5 L 15 41.5 C 14.148438 41.5 13.5 40.851562 13.5 40 C 13.5 39.148438 14.148438 38.5 15 38.5 L 17.398438 38.5 C 18.25 38.5 18.898438 39.148438 18.898438 40 C 18.898438 40.851562 18.25 41.5 17.398438 41.5 Z M 17.398438 41.5 "/>
</g>
</svg>
