<?xml version="1.0" encoding="UTF-8"?>
<svg xmlns="http://www.w3.org/2000/svg" xmlns:xlink="http://www.w3.org/1999/xlink" width="64pt" height="64pt" viewBox="0 0 64 64" version="1.1">
<g id="surface367810">
<path style=" stroke:none;fill-rule:nonzero;fill:rgb(100%,100%,100%);fill-opacity:1;" d="M 52 24.5 C 52 13 42.25 3.75 30.601562 4.550781 C 20.550781 5.25 12.5 13.5 12.050781 23.5 C 11.699219 30.648438 15.101562 37 20.398438 40.800781 C 23 42.648438 24.5 45.648438 24.5 48.851562 L 24.5 54.5 L 39.5 54.5 L 39.5 48.851562 C 39.5 45.601562 41.101562 42.601562 43.75 40.699219 C 48.75 37.101562 52 31.148438 52 24.5 Z M 52 24.5 "/>
<path style=" stroke:none;fill-rule:nonzero;fill:rgb(26.666667%,54.117647%,100%);fill-opacity:1;" d="M 32 24.300781 L 32 40.5 C 32 46.101562 34.800781 51.351562 39.5 54.5 L 39.5 48.851562 C 39.5 45.601562 41.101562 42.601562 43.75 40.699219 C 48.75 37.101562 52 31.148438 52 24.5 C 52 24.199219 52 23.949219 52 23.699219 C 51.5 10.75 32 11.351562 32 24.300781 Z M 32 24.300781 "/>
<path style=" stroke:none;fill-rule:nonzero;fill:rgb(100%,100%,100%);fill-opacity:1;" d="M 12.050781 23.449219 C 15.199219 22.699219 18.949219 20.5 22.300781 17.148438 C 26.449219 13 28.851562 8.25 28.851562 4.75 C 19.699219 6.199219 12.550781 14.050781 12.050781 23.449219 Z M 12.050781 23.449219 "/>
<path style=" stroke:none;fill-rule:nonzero;fill:rgb(16.078431%,38.431373%,100%);fill-opacity:1;" d="M 39.5 50.351562 C 38.648438 50.351562 38 49.699219 38 48.851562 C 38 45.148438 39.800781 41.648438 42.851562 39.449219 C 47.648438 36 50.5 30.398438 50.5 24.5 C 50.5 19.398438 48.351562 14.449219 44.601562 10.949219 C 40.800781 7.398438 35.851562 5.648438 30.648438 6 C 21.351562 6.699219 14 14.25 13.550781 23.601562 C 13.25 29.949219 16.148438 35.898438 21.300781 39.601562 C 21.949219 40.101562 22.148438 41 21.648438 41.699219 C 21.148438 42.351562 20.25 42.550781 19.550781 42.050781 C 13.550781 37.800781 10.199219 30.851562 10.550781 23.5 C 11.050781 12.550781 19.648438 3.800781 30.5 3.050781 C 36.550781 2.648438 42.300781 4.648438 46.699219 8.800781 C 51.050781 12.851562 53.5 18.550781 53.5 24.5 C 53.5 31.351562 50.148438 37.898438 44.601562 41.898438 C 42.351562 43.550781 41 46.148438 41 48.851562 C 41 49.699219 40.351562 50.351562 39.5 50.351562 Z M 39.5 50.351562 "/>
<path style=" stroke:none;fill-rule:nonzero;fill:rgb(100%,100%,100%);fill-opacity:1;" d="M 40.550781 49.5 L 23.449219 49.5 L 23.449219 54.5 L 40.550781 54.5 L 40.550781 49.5 "/>
<path style=" stroke:none;fill-rule:nonzero;fill:rgb(16.078431%,38.431373%,100%);fill-opacity:1;" d="M 40.550781 56 L 23.449219 56 C 22.601562 56 21.949219 55.351562 21.949219 54.5 L 21.949219 49.5 C 21.949219 48.648438 22.601562 48 23.449219 48 L 40.550781 48 C 40.949219 48 41.351562 48.148438 41.601562 48.449219 C 41.851562 48.75 42.050781 49.101562 42.050781 49.5 L 42 54.5 C 42 55.351562 41.351562 56 40.550781 56 Z M 24.949219 53 L 39.050781 53 L 39.050781 51 L 24.949219 51 Z M 33 61 L 31 61 C 30.148438 61 29.5 60.351562 29.5 59.5 C 29.5 58.648438 30.148438 58 31 58 L 33 58 C 33.851562 58 34.5 58.648438 34.5 59.5 C 34.5 60.351562 33.851562 61 33 61 Z M 33 61 "/>
</g>
</svg>
