<?xml version="1.0" encoding="UTF-8"?>
<svg xmlns="http://www.w3.org/2000/svg" xmlns:xlink="http://www.w3.org/1999/xlink" width="64pt" height="64pt" viewBox="0 0 64 64" version="1.1">
<g id="surface353092">
<path style=" stroke:none;fill-rule:nonzero;fill:rgb(100%,100%,100%);fill-opacity:1;" d="M 14.5 27 C 11.738281 27 9.5 29.238281 9.5 32 C 9.5 34.761719 11.738281 37 14.5 37 C 17.261719 37 19.5 34.761719 19.5 32 C 19.5 29.238281 17.261719 27 14.5 27 Z M 14.5 44.5 C 11.738281 44.5 9.5 46.738281 9.5 49.5 C 9.5 52.261719 11.738281 54.5 14.5 54.5 C 17.261719 54.5 19.5 52.261719 19.5 49.5 C 19.5 46.738281 17.261719 44.5 14.5 44.5 Z M 14.5 9.5 C 11.738281 9.5 9.5 11.738281 9.5 14.5 C 9.5 17.261719 11.738281 19.5 14.5 19.5 C 17.261719 19.5 19.5 17.261719 19.5 14.5 C 19.5 11.738281 17.261719 9.5 14.5 9.5 Z M 14.5 9.5 "/>
<path style=" stroke:none;fill-rule:nonzero;fill:rgb(16.078431%,38.431373%,100%);fill-opacity:1;" d="M 14.5 38.5 C 10.898438 38.5 8 35.601562 8 32 C 8 28.398438 10.898438 25.5 14.5 25.5 C 18.101562 25.5 21 28.398438 21 32 C 21 35.601562 18.101562 38.5 14.5 38.5 Z M 14.5 28.5 C 12.550781 28.5 11 30.050781 11 32 C 11 33.949219 12.550781 35.5 14.5 35.5 C 16.449219 35.5 18 33.949219 18 32 C 18 30.050781 16.449219 28.5 14.5 28.5 Z M 14.5 28.5 "/>
<path style=" stroke:none;fill-rule:nonzero;fill:rgb(26.666667%,29.411765%,32.941176%);fill-opacity:1;" d="M 14.5 56 C 10.898438 56 8 53.101562 8 49.5 C 8 45.898438 10.898438 43 14.5 43 C 18.101562 43 21 45.898438 21 49.5 C 21 53.101562 18.101562 56 14.5 56 Z M 14.5 46 C 12.550781 46 11 47.550781 11 49.5 C 11 51.449219 12.550781 53 14.5 53 C 16.449219 53 18 51.449219 18 49.5 C 18 47.550781 16.449219 46 14.5 46 Z M 14.5 46 "/>
<path style=" stroke:none;fill-rule:nonzero;fill:rgb(16.078431%,38.431373%,100%);fill-opacity:1;" d="M 14.5 21 C 10.898438 21 8 18.101562 8 14.5 C 8 10.898438 10.898438 8 14.5 8 C 18.101562 8 21 10.898438 21 14.5 C 21 18.101562 18.101562 21 14.5 21 Z M 14.5 11 C 12.550781 11 11 12.550781 11 14.5 C 11 16.449219 12.550781 18 14.5 18 C 16.449219 18 18 16.449219 18 14.5 C 18 12.550781 16.449219 11 14.5 11 Z M 54 16 L 27 16 C 26.148438 16 25.5 15.351562 25.5 14.5 C 25.5 13.648438 26.148438 13 27 13 L 54 13 C 54.851562 13 55.5 13.648438 55.5 14.5 C 55.5 15.351562 54.851562 16 54 16 Z M 54 33.5 L 27 33.5 C 26.148438 33.5 25.5 32.851562 25.5 32 C 25.5 31.148438 26.148438 30.5 27 30.5 L 54 30.5 C 54.851562 30.5 55.5 31.148438 55.5 32 C 55.5 32.851562 54.851562 33.5 54 33.5 Z M 54 33.5 "/>
<path style=" stroke:none;fill-rule:nonzero;fill:rgb(26.666667%,29.411765%,32.941176%);fill-opacity:1;" d="M 54 51 L 27 51 C 26.148438 51 25.5 50.351562 25.5 49.5 C 25.5 48.648438 26.148438 48 27 48 L 54 48 C 54.851562 48 55.5 48.648438 55.5 49.5 C 55.5 50.351562 54.851562 51 54 51 Z M 54 51 "/>
</g>
</svg>
