<?xml version="1.0" encoding="UTF-8"?>
<svg xmlns="http://www.w3.org/2000/svg" xmlns:xlink="http://www.w3.org/1999/xlink" width="60pt" height="60pt" viewBox="0 0 60 60" version="1.1">
<g id="surface213870">
<path style=" stroke:none;fill-rule:nonzero;fill:rgb(94.509804%,76.862745%,5.882353%);fill-opacity:1;" d="M 40 6 C 39.285156 6 38.625 6.382812 38.269531 7.003906 L 38.265625 7.003906 L 29.511719 19.796875 L 40.207031 30.492188 L 53.070312 21.691406 L 53.074219 21.6875 C 53.652344 21.320312 54 20.683594 54 20 C 54 19.464844 53.785156 18.953125 53.40625 18.578125 L 41.460938 6.636719 L 41.453125 6.628906 C 41.074219 6.226562 40.550781 6 40 6 Z M 20.21875 22 C 17.246094 22 14.269531 23.132812 12 25.402344 L 21.882812 35.289062 L 8.585938 48.585938 C 8.0625 49.085938 7.851562 49.832031 8.035156 50.535156 C 8.21875 51.234375 8.765625 51.78125 9.464844 51.964844 C 10.167969 52.148438 10.914062 51.9375 11.414062 51.414062 L 24.710938 38.117188 L 34.597656 48 C 39.136719 43.460938 39.136719 36.105469 34.597656 31.566406 L 28.433594 25.402344 C 26.164062 23.132812 23.191406 22 20.21875 22 Z M 20.21875 22 "/>
</g>
</svg>
