<svg xmlns="http://www.w3.org/2000/svg" viewBox="0 0 100 100" width="50px" height="50px"><path fill="#ee3e54" d="M13 27A2 2 0 1 0 13 31A2 2 0 1 0 13 27Z"/><path fill="#f1bc19" d="M77 12A1 1 0 1 0 77 14A1 1 0 1 0 77 12Z"/><path fill="#fce0a2" d="M50 13A37 37 0 1 0 50 87A37 37 0 1 0 50 13Z"/><path fill="#f1bc19" d="M83 11A4 4 0 1 0 83 19A4 4 0 1 0 83 11Z"/><path fill="#ee3e54" d="M87 22A2 2 0 1 0 87 26A2 2 0 1 0 87 22Z"/><path fill="#fbcd59" d="M81 74A2 2 0 1 0 81 78 2 2 0 1 0 81 74zM15 59A4 4 0 1 0 15 67 4 4 0 1 0 15 59z"/><path fill="#ee3e54" d="M25 85A2 2 0 1 0 25 89A2 2 0 1 0 25 85Z"/><path fill="#fff" d="M18.5 51A2.5 2.5 0 1 0 18.5 56A2.5 2.5 0 1 0 18.5 51Z"/><path fill="#f1bc19" d="M21 66A1 1 0 1 0 21 68A1 1 0 1 0 21 66Z"/><path fill="#fff" d="M80 33A1 1 0 1 0 80 35A1 1 0 1 0 80 33Z"/><g><path fill="#5aba9e" d="M50 25.625A24.25 24.25 0 1 0 50 74.125A24.25 24.25 0 1 0 50 25.625Z"/><path fill="#472b29" d="M50,74.825c-13.757,0-24.95-11.192-24.95-24.95S36.243,24.925,50,24.925s24.95,11.192,24.95,24.95 S63.757,74.825,50,74.825z M50,26.325c-12.985,0-23.55,10.564-23.55,23.55S37.015,73.425,50,73.425s23.55-10.564,23.55-23.55 S62.985,26.325,50,26.325z"/></g><g><path fill="#472b29" d="M69.424,44.625c-0.214,0-0.412-0.139-0.478-0.354c-0.088-0.287-0.183-0.571-0.284-0.853 c-0.392-1.094-0.886-2.159-1.47-3.169c-0.139-0.238-0.057-0.545,0.182-0.683c0.239-0.141,0.545-0.057,0.683,0.183 c0.614,1.061,1.134,2.182,1.546,3.331c0.106,0.297,0.206,0.595,0.298,0.897c0.081,0.264-0.067,0.544-0.332,0.625 C69.521,44.618,69.472,44.625,69.424,44.625z"/></g><g><path fill="#472b29" d="M50,70.75c-11.511,0-20.875-9.337-20.875-20.813S38.489,29.125,50,29.125 c5.975,0,11.674,2.56,15.636,7.023c0.299,0.337,0.588,0.685,0.865,1.041c0.169,0.218,0.13,0.531-0.087,0.701 c-0.218,0.171-0.532,0.131-0.702-0.088c-0.264-0.339-0.54-0.669-0.824-0.99c-3.772-4.25-9.199-6.688-14.888-6.688 c-10.959,0-19.875,8.888-19.875,19.813S39.041,69.75,50,69.75s19.875-8.888,19.875-19.813c0-0.995-0.075-1.996-0.222-2.973 c-0.041-0.272,0.147-0.527,0.42-0.568c0.278-0.044,0.528,0.147,0.569,0.42c0.154,1.025,0.233,2.076,0.233,3.121 C70.875,61.413,61.511,70.75,50,70.75z"/></g><g><path fill="#fddbbc" d="M63,47.5c0-1.381-1.119-2.5-2.5-2.5H49.769c0.787-1.353,1.84-4.353,1.814-7.324 c-0.042-4.738-5.125-4.103-5.083-0.635c0.024,2.03-2,4.553-4,6.584s-2,5.076-2,5.076v10.153c0,1.819,1.75,3.646,4,3.646h3l0,0H57 c1.381,0,2.5-1.119,2.5-2.5c0-0.64-0.248-1.218-0.644-1.66C59.813,57.989,60.5,57.078,60.5,56c0-0.64-0.248-1.218-0.644-1.66 C60.813,53.989,61.5,53.078,61.5,52c0-0.822-0.402-1.544-1.014-2H60.5C61.881,50,63,48.881,63,47.5z"/><path fill="#472b29" d="M57,63H44.5c-2.397,0-4.5-1.938-4.5-4.146V48.701c0-0.133,0.024-3.274,2.144-5.427 c2.577-2.616,3.875-4.712,3.856-6.228c-0.015-1.235,0.537-2.275,1.513-2.853c0.894-0.529,1.995-0.549,2.871-0.055 c0.626,0.354,1.68,1.282,1.7,3.531c0.023,2.646-0.782,5.273-1.497,6.829H60.5c1.654,0,3,1.346,3,3c0,1.308-0.841,2.423-2.01,2.832 C61.82,50.819,62,51.395,62,52c0,1.032-0.542,1.982-1.396,2.525C60.862,54.975,61,55.482,61,56c0,1.032-0.542,1.982-1.396,2.525 C59.862,58.975,60,59.482,60,60C60,61.654,58.654,63,57,63z M49.009,34.782c-0.338,0-0.68,0.091-0.987,0.272 c-0.66,0.391-1.032,1.112-1.022,1.98c0.022,1.817-1.333,4.088-4.144,6.94C41.021,45.84,41,48.673,41,48.701v10.153 C41,60.339,42.497,62,44.5,62H57c1.103,0,2-0.897,2-2c0-0.483-0.184-0.954-0.516-1.327c-0.111-0.123-0.153-0.294-0.112-0.454 c0.04-0.161,0.157-0.291,0.313-0.349C59.471,57.582,60,56.83,60,56c0-0.483-0.184-0.954-0.516-1.327 c-0.111-0.123-0.153-0.294-0.112-0.454c0.04-0.161,0.157-0.291,0.313-0.349C60.471,53.582,61,52.83,61,52 c0-0.632-0.296-1.214-0.813-1.599c-0.173-0.129-0.244-0.354-0.176-0.559c0.068-0.205,0.259-0.343,0.475-0.343 c1.117,0,2.014-0.897,2.014-2s-0.897-2-2-2H49.769c-0.179,0-0.344-0.096-0.434-0.251c-0.089-0.154-0.088-0.346,0.001-0.5 c0.716-1.232,1.772-4.132,1.747-7.069c-0.011-1.294-0.435-2.242-1.191-2.669C49.622,34.857,49.317,34.782,49.009,34.782z"/></g><g><path fill="#472b29" d="M56,48h-1.5c-0.276,0-0.5-0.224-0.5-0.5s0.224-0.5,0.5-0.5H56c0.276,0,0.5,0.224,0.5,0.5 S56.276,48,56,48z"/></g><g><path fill="#472b29" d="M56,52h-1.5c-0.276,0-0.5-0.224-0.5-0.5s0.224-0.5,0.5-0.5H56c0.276,0,0.5,0.224,0.5,0.5 S56.276,52,56,52z"/></g><g><path fill="#472b29" d="M56,56h-1.5c-0.276,0-0.5-0.224-0.5-0.5s0.224-0.5,0.5-0.5H56c0.276,0,0.5,0.224,0.5,0.5 S56.276,56,56,56z"/></g><g><path fill="#472b29" d="M56,60h-1.5c-0.276,0-0.5-0.224-0.5-0.5s0.224-0.5,0.5-0.5H56c0.276,0,0.5,0.224,0.5,0.5 S56.276,60,56,60z"/></g></svg>