<?xml version="1.0"?>
<svg xmlns="http://www.w3.org/2000/svg" height="512px" viewBox="0 -44 406.00002 406" width="512px" class=""><g><path d="m101.75 107.050781h205.089844c16.570312 0 30 13.429688 30 30v150.527344c0 16.570313-13.429688 30-30 30h-276.839844c-16.570312 0-30-13.429687-30-30v-150.527344c0-16.570312 13.429688-30 30-30zm177.339844 111.929688v-16.660157c0-11.046874-8.953125-20-20-20s-20 8.953126-20 20v16.660157zm-70.667969 31.929687h-80c0 22.089844 17.90625 40 40 40 22.089844 0 40-17.910156 40-40zm-110.671875-31.929687v-16.660157c0-11.046874-8.953125-20-20-20s-20 8.953126-20 20v16.660157zm0 0" fill="#e48e66" data-original="#E48E66" class="" style="fill:#5F7D95" data-old_color="#e48e66"/><g fill="#f8ec7d"><path d="m279.089844 202.320312v16.660157h-40v-16.660157c0-11.046874 8.953125-20 20-20s20 8.953126 20 20zm0 0" data-original="#F8EC7D" class="" style="fill:#C7EBFF" data-old_color="#F8EC7D"/><path d="m128.421875 250.910156h80c0 22.089844-17.910156 40-40 40-22.09375 0-40-17.910156-40-40zm0 0" data-original="#F8EC7D" class="" style="fill:#C7EBFF" data-old_color="#F8EC7D"/><path d="m97.75 202.320312v16.660157h-40v-16.660157c0-11.046874 8.953125-20 20-20s20 8.953126 20 20zm0 0" data-original="#F8EC7D" class="" style="fill:#C7EBFF" data-old_color="#F8EC7D"/></g><path d="m362.421875 73.050781h12v90.527344h-12zm0 0" fill="#e2d574" data-original="#E2D574" class=""/><path d="m168 73.121094c-3.3125 0-6-2.6875-6-6v-29.332032c0-3.3125 2.6875-6 6-6s6 2.6875 6 6v29.332032c0 3.3125-2.6875 6-6 6zm0 0" fill="#e2d574" data-original="#E2D574" class=""/><path d="m406 37.578125c0 20.757813-16.824219 37.582031-37.578125 37.582031-20.757813 0-37.582031-16.824218-37.582031-37.582031 0-20.753906 16.824218-37.578125 37.582031-37.578125 20.753906 0 37.578125 16.824219 37.578125 37.578125zm0 0" fill="#6fe3ff" data-original="#6FE3FF" class="active-path" style="fill:#1273EB" data-old_color="#6fe3ff"/><path d="m235.089844 77.121094v29.929687h-133.339844v-29.929687c0-5.523438 4.476562-10 10-10h113.339844c5.523437 0 10 4.476562 10 10zm0 0" fill="#f8ec7d" data-original="#F8EC7D" class="" style="fill:#C7EBFF" data-old_color="#f8ec7d"/><path d="m336.839844 149.160156c34.878906 0 63.15625 28.273438 63.15625 63.15625 0 34.878906-28.277344 63.152344-63.15625 63.152344zm0 0" fill="#f8ec7d" data-original="#F8EC7D" class="" style="fill:#C7EBFF" data-old_color="#f8ec7d"/></g> </svg>
