<?xml version="1.0" encoding="UTF-8"?>
<svg xmlns="http://www.w3.org/2000/svg" xmlns:xlink="http://www.w3.org/1999/xlink" width="60pt" height="60pt" viewBox="0 0 60 60" version="1.1">
<g id="surface227791">
<path style=" stroke:none;fill-rule:nonzero;fill:rgb(16.078431%,47.45098%,100%);fill-opacity:1;" d="M 52 6 C 51.808594 6 51.617188 6.03125 51.433594 6.085938 C 51.378906 6.101562 51.324219 6.117188 51.273438 6.136719 L 7.300781 20.121094 L 7.300781 20.128906 C 6.519531 20.421875 6 21.167969 6 22 C 6 22.699219 6.367188 23.34375 6.964844 23.707031 L 20.328125 34.308594 L 46.746094 13.253906 L 25.691406 39.671875 L 36.285156 53.027344 C 36.644531 53.628906 37.296875 54 38 54 C 38.832031 54 39.578125 53.480469 39.871094 52.699219 L 39.878906 52.699219 L 53.875 8.6875 C 53.890625 8.648438 53.902344 8.605469 53.914062 8.566406 C 53.96875 8.382812 54 8.191406 54 8 C 54 6.894531 53.105469 6 52 6 Z M 52 6 "/>
</g>
</svg>
