<?xml version="1.0" encoding="UTF-8"?>
<svg xmlns="http://www.w3.org/2000/svg" xmlns:xlink="http://www.w3.org/1999/xlink" width="26pt" height="26pt" viewBox="0 0 26 26" version="1.1">
<g id="surface371241">
<path style=" stroke:none;fill-rule:nonzero;fill:rgb(94.509804%,76.862745%,5.882353%);fill-opacity:1;" d="M 25.324219 10.136719 C 25.210938 9.777344 24.894531 9.511719 24.519531 9.457031 L 17.179688 8.390625 L 13.894531 1.738281 C 13.558594 1.058594 12.441406 1.058594 12.101562 1.738281 L 8.820312 8.390625 L 1.480469 9.457031 C 1.105469 9.511719 0.789062 9.773438 0.671875 10.136719 C 0.554688 10.5 0.652344 10.898438 0.925781 11.160156 L 6.238281 16.339844 L 4.984375 23.648438 C 4.921875 24.023438 5.074219 24.40625 5.382812 24.628906 C 5.691406 24.851562 6.097656 24.882812 6.433594 24.703125 L 13 21.253906 L 19.5625 24.703125 C 19.710938 24.78125 19.871094 24.816406 20.03125 24.816406 C 20.238281 24.816406 20.441406 24.753906 20.617188 24.628906 C 20.925781 24.402344 21.078125 24.023438 21.015625 23.648438 L 19.761719 16.339844 L 25.074219 11.160156 C 25.347656 10.894531 25.441406 10.5 25.324219 10.136719 Z M 25.324219 10.136719 "/>
</g>
</svg>
