<?xml version="1.0" encoding="UTF-8"?>
<svg xmlns="http://www.w3.org/2000/svg" xmlns:xlink="http://www.w3.org/1999/xlink" width="50pt" height="50pt" viewBox="0 0 50 50" version="1.1">
<g id="surface431161">
<path style=" stroke:none;fill-rule:nonzero;fill:rgb(16.078431%,38.431373%,100%);fill-opacity:1;" d="M 25.3125 0 C 22.828125 0 20.734375 0.914062 19.03125 2.75 C 15.664062 6.378906 14.8125 12.6875 15.0625 16.03125 C 15.488281 21.761719 17.746094 27.117188 17.84375 27.34375 C 18.03125 27.78125 18.5 28.035156 18.96875 27.9375 C 19.011719 27.929688 23.621094 26.976562 25.75 27.125 C 27.824219 27.28125 30.882812 28.039062 32.71875 28.875 C 32.851562 28.933594 33.015625 28.96875 33.15625 28.96875 C 33.289062 28.96875 33.40625 28.929688 33.53125 28.875 C 33.789062 28.761719 34 28.546875 34.09375 28.28125 C 34.167969 28.066406 35.914062 22.988281 36 18.59375 C 36.105469 13.269531 34.910156 6.261719 31.28125 2.5625 C 29.621094 0.867188 27.601562 0 25.3125 0 Z M 17.5 35.28125 C 17.117188 35.335938 16.792969 35.632812 16.6875 36.03125 C 15.4375 40.671875 15.867188 44.839844 17.90625 47.5 C 19.140625 49.109375 20.898438 50 22.8125 50 C 25.691406 50 28.007812 49.132812 29.71875 47.40625 C 32.421875 44.683594 32.960938 40.441406 32.9375 37.375 C 32.933594 37.089844 32.808594 36.8125 32.59375 36.625 C 32.378906 36.4375 32.097656 36.371094 31.8125 36.40625 C 31.792969 36.410156 29.753906 36.625 27.1875 36.625 C 26.101562 36.625 25.066406 36.582031 24.125 36.5 C 21.230469 36.25 19.171875 35.65625 18.28125 35.40625 L 17.90625 35.3125 C 17.773438 35.277344 17.628906 35.261719 17.5 35.28125 Z M 17.5 35.28125 "/>
</g>
</svg>
