<svg height="464pt" viewBox="-64 0 464 464.12017" width="464pt" xmlns="http://www.w3.org/2000/svg"><path d="m64.066406 80 24 82.078125c26.105469 87.746094 28.863282 180.785156 8 269.921875h160c-20.859375-89.136719-18.101562-182.175781 8-269.921875l24-82.078125zm0 0" fill="#aae1f9"/><path d="m237.910156 400c-52.648437.003906-95.476562-42.394531-96-95.039062-.636718-48.410157-7.984375-96.496094-21.84375-142.882813l-24-82.078125h-32l24 82.078125c26.105469 87.746094 28.863282 180.785156 8 269.921875h160c-2.476562-10.640625-4.636718-21.28125-6.476562-32zm0 0" fill="#57b7eb"/><path d="m96.066406 432h160v16c0 8.835938-7.160156 16-16 16h-128c-8.835937 0-16-7.164062-16-16zm0 0" fill="#57b7eb"/><path d="m336.066406 32v-32h-54.878906c-11.421875.0117188-21.96875 6.109375-27.679688 16l-70.398437 122 27.679687 16 70.398438-122zm0 0" fill="#f9e109"/><path d="m232.066406 84c.027344-12.515625 1.257813-25 3.683594-37.28125l-52.640625 91.28125 27.679687 16 23.519532-40.71875c-1.484375-9.691406-2.234375-19.480469-2.242188-29.28125zm0 0" fill="#fcbc04"/><path d="m176.066406 128.398438c-31.261718-10.433594-64.953125-11.160157-96.636718-2.078126l-1.519532.398438 10.15625 35.359375c26.105469 87.746094 28.863282 180.785156 8 269.921875h160c-20.859375-89.136719-18.101562-182.175781 8-269.921875l9.363282-32h-.402344c-31.75 9.238281-65.550782 8.652344-96.960938-1.679687zm0 0" fill="#f8664f"/><path d="m237.910156 400c-52.648437.003906-95.476562-42.394531-96-95.039062-.636718-48.410157-7.984375-96.496094-21.84375-142.882813l-12.15625-41.199219c-9.746094.933594-19.386718 2.753906-28.800781 5.441406l-1.519531.398438 10.476562 35.359375c26.105469 87.746094 28.863282 180.785156 8 269.921875h160c-2.476562-10.640625-4.636718-21.28125-6.476562-32zm0 0" fill="#cc5144"/><path d="m216.066406 384c0 8.835938-7.160156 16-16 16-8.835937 0-16-7.164062-16-16s7.164063-16 16-16c8.839844 0 16 7.164062 16 16zm0 0" fill="#f89c8d"/><path d="m200.066406 400c3.863282-.023438 7.585938-1.445312 10.480469-4-9.425781-2.78125-18.359375-7.019531-26.480469-12.558594v.558594c0 8.835938 7.164063 16 16 16zm0 0" fill="#f8664f"/><path d="m168.066406 336c0 4.417969-3.578125 8-8 8-4.417968 0-8-3.582031-8-8s3.582032-8 8-8c4.421875 0 8 3.582031 8 8zm0 0" fill="#f89c8d"/><path d="m216.066406 312c0 4.417969-3.578125 8-8 8-4.417968 0-8-3.582031-8-8s3.582032-8 8-8c4.421875 0 8 3.582031 8 8zm0 0" fill="#f89c8d"/><path d="m84.386719 352.398438-9.117188 3.363281c-7.222656 2.695312-15.179687 2.695312-22.402343 0l-9.117188-3.363281c-9.925781-3.890626-21.136719-2.585938-29.898438 3.480468-8.765624 6.070313-13.9335932 16.101563-13.7851558 26.761719v14.878906c-.5429682 34.5 25.7031248 63.542969 60.0820318 66.480469 17.640624 1.082031 34.945312-5.179688 47.8125-17.300781 12.863281-12.121094 20.140624-29.023438 20.105468-46.699219v-17.359375c.152344-10.660156-5.015625-20.691406-13.78125-26.761719-8.761718-6.066406-19.972656-7.371094-29.898437-3.480468zm0 0" fill="#f8664f"/><path d="m24.066406 368c.046875-5.6875.582032-11.363281 1.601563-16.960938-14.90625 3.199219-25.5625 16.355469-25.6015628 31.601563v14.878906c-.5429682 34.5 25.7031248 63.542969 60.0820318 66.480469 9.917968.542969 19.828124-1.210938 28.960937-5.121094-38.898437-13.25-65.046875-49.789062-65.042969-90.878906zm0 0" fill="#cc5144"/><path d="m110.675781 368.039062c-6.25-6.25-13.847656-8.78125-16.972656-5.65625s-.589844 10.722657 5.65625 16.96875c6.25 6.25 13.847656 8.78125 16.972656 5.65625 3.121094-3.121093.589844-10.71875-5.65625-16.96875zm0 0" fill="#f89c8d"/><path d="m98.628906 368.398438c-12.339844-4.140626-22.117187-13.683594-26.5625-25.917969.003906-6.296875 2.179688-12.402344 6.160156-17.28125 2.164063-2.152344 2.910157-5.351563 1.925782-8.238281-.980469-2.890626-3.519532-4.96875-6.546875-5.359376-3.027344-.390624-6.011719.972657-7.695313 3.519532-6.304687 7.667968-9.777344 17.273437-9.84375 27.199218-4.441406 12.234376-14.21875 21.777344-26.558594 25.917969-2.019531.675781-3.683593 2.128907-4.632812 4.035157-.945312 1.90625-1.089844 4.109374-.40625 6.125 1.042969 3.324218 4.117188 5.585937 7.597656 5.601562.851563.109375 1.710938.109375 2.5625 0 8.039063-2.832031 15.355469-7.390625 21.4375-13.359375v13.359375c0 4.417969 3.582032 8 8 8 4.421875 0 8-3.582031 8-8v-13.359375c6.085938 5.96875 13.402344 10.527344 21.441406 13.359375.851563.109375 1.710938.109375 2.558594 0 3.441406.007812 6.5-2.179688 7.601563-5.441406.683593-2.015625.539062-4.21875-.40625-6.125-.949219-1.90625-2.613281-3.359375-4.632813-4.035156zm0 0" fill="#a1d51c"/></svg>