<svg height="512pt" viewBox="-33 0 512 512.00055" width="512pt" xmlns="http://www.w3.org/2000/svg"><path d="m171.792969 136.621094c-18.183594-10.546875-71.683594-14.890625-103.273438-.324219-3.792969 1.746094-5.445312 6.234375-3.699219 10.023437 1.273438 2.765626 4.011719 4.394532 6.867188 4.394532 1.058594 0 2.136719-.222656 3.160156-.695313 27.417969-12.640625 76.09375-8.023437 89.359375-.324219 3.609375 2.089844 8.230469.867188 10.328125-2.746093 2.09375-3.609375.867188-8.234375-2.742187-10.328125zm0 0"/><path d="m171.792969 177.367188c-18.164063-10.539063-71.652344-14.878907-103.269531-.328126-3.792969 1.742188-5.449219 6.230469-3.707032 10.023438 1.273438 2.765625 4.011719 4.398438 6.871094 4.398438 1.054688 0 2.128906-.222657 3.152344-.695313 27.449218-12.628906 76.117187-8.015625 89.367187-.328125 3.609375 2.09375 8.230469.867188 10.328125-2.742188 2.09375-3.613281.867188-8.234374-2.742187-10.328124zm0 0"/><path d="m171.792969 95.847656c-18.164063-10.535156-71.65625-14.875-103.269531-.328125-3.792969 1.746094-5.449219 6.234375-3.707032 10.023438 1.273438 2.769531 4.011719 4.398437 6.871094 4.398437 1.058594 0 2.128906-.222656 3.152344-.691406 27.445312-12.628906 76.117187-8.019531 89.367187-.328125 3.609375 2.089844 8.230469.863281 10.328125-2.746094 2.09375-3.609375.867188-8.230469-2.742187-10.328125zm0 0"/><path d="m68.519531 54.777344c-3.792969 1.75-5.445312 6.238281-3.699219 10.027344 1.273438 2.765624 4.011719 4.394531 6.867188 4.394531 1.058594 0 2.136719-.226563 3.160156-.695313 27.417969-12.640625 76.09375-8.023437 89.359375-.328125 3.609375 2.09375 8.230469.867188 10.328125-2.742187 2.09375-3.609375.863282-8.234375-2.742187-10.328125-18.183594-10.550781-71.683594-14.894531-103.273438-.328125zm0 0"/><path d="m231.382812 149.691406c13.265626-7.695312 61.941407-12.316406 89.359376.328125 1.027343.472657 2.101562.695313 3.160156.695313 2.859375 0 5.59375-1.628906 6.867187-4.394532 1.746094-3.789062.089844-8.277343-3.699219-10.027343-31.589843-14.5625-85.089843-10.222657-103.273437.328125-3.609375 2.09375-4.835937 6.71875-2.742187 10.328125s6.71875 4.835937 10.328124 2.742187zm0 0"/><path d="m231.382812 190.4375c13.25-7.6875 61.917969-12.300781 89.367188.328125 1.019531.46875 2.09375.691406 3.152344.691406 2.859375 0 5.597656-1.628906 6.871094-4.398437 1.742187-3.789063.082031-8.277344-3.707032-10.023438-31.617187-14.546875-85.109375-10.207031-103.269531.328125-3.609375 2.09375-4.835937 6.71875-2.742187 10.328125 2.09375 3.613282 6.71875 4.839844 10.328124 2.746094zm0 0"/><path d="m231.382812 108.917969c13.25-7.6875 61.917969-12.300781 89.367188.328125 1.019531.472656 2.09375.695312 3.152344.695312 2.859375 0 5.597656-1.632812 6.871094-4.398437 1.742187-3.792969.082031-8.277344-3.707032-10.023438-31.617187-14.550781-85.105468-10.207031-103.269531.328125-3.609375 2.09375-4.835937 6.71875-2.742187 10.328125 2.09375 3.613281 6.71875 4.835938 10.328124 2.742188zm0 0"/><path d="m231.382812 68.175781c13.265626-7.695312 61.941407-12.316406 89.359376.324219 1.027343.472656 2.101562.695312 3.160156.695312 2.859375 0 5.59375-1.628906 6.867187-4.394531 1.746094-3.789062.089844-8.277343-3.699219-10.023437-31.589843-14.566406-85.089843-10.222656-103.273437.324218-3.609375 2.09375-4.835937 6.71875-2.742187 10.328126 2.09375 3.613281 6.71875 4.839843 10.328124 2.746093zm0 0"/><path d="m418.183594 97.972656h-22.59375v-40.1875c0-7.925781-3.105469-15.386718-8.738282-21.007812-5.59375-5.578125-12.992187-8.648438-20.855468-8.648438-.023438 0-.046875 0-.070313 0l-6.046875.027344c-.792968-14.789062-10.074218-17.449219-22.714844-21.050781l-.28125-.078125c-33.089843-9.410156-105.476562-10.949219-139.082031 5.28125-19.472656-9.40625-49.703125-11.625-66.660156-12.09375-27.273437-.75-55.023437 1.859375-72.4375 6.8125l-.277344.078125c-12.636719 3.601562-21.921875 6.257812-22.714843 21.050781l-6.0625-.027344c-.023438 0-.046876 0-.070313 0-7.847656 0-15.246094 3.070313-20.839844 8.648438-5.636719 5.621094-8.738281 13.082031-8.738281 21.007812v199.898438c0 29.222656 26.644531 44.550781 52.96875 44.589844l144.800781.195312h.011719.011719.015625.011718l144.800782-.195312c26.320312-.039063 52.96875-15.367188 52.96875-44.589844v-51.597656c0-4.171876-3.382813-7.554688-7.558594-7.554688-4.171875 0-7.554688 3.382812-7.554688 7.554688v51.597656c0 21.585937-22.652343 29.453125-37.878906 29.476562l-137.257812.1875.015625-22.164062h135.578125c10.480468 0 19.007812-8.652344 19.007812-19.285156v-202.632813l6.035156-.023437h.03125c3.820313 0 7.429688 1.503906 10.167969 4.234374 2.773438 2.765626 4.300781 6.425782 4.300781 10.308594v113.113282c0 4.171874 3.382813 7.554687 7.554688 7.554687 4.175781 0 7.558594-3.382813 7.558594-7.554687v-57.8125h22.59375c7.003906 0 12.703125 5.710937 12.703125 12.730468v152.382813c0 18.164062-16.785157 45.0625-52.808594 45.117187l-109.207031.113282c-50.875.035156-50.875 37.066406-50.875 49.234374v1.707032c-23.296875 3.140625-41.175782 20.554687-41.175782 41.5v54.121094c0 23.164062 21.859376 42.007812 48.730469 42.007812 26.871094 0 48.730469-18.84375 48.730469-42.007812v-54.121094c0-20.949219-17.882812-38.359375-41.175781-41.5v-1.707032c0-17.253906 2.765625-34.101562 35.777343-34.125l109.214844-.113281c41.941406-.0625 67.902344-31.3125 67.902344-60.230469v-152.378906c0-15.351562-12.476562-27.84375-27.816406-27.84375zm-85.4375-76.410156.273437.074219c5.007813 1.429687 9.335938 2.664062 10.871094 3.875.253906.203125.9375.746093.9375 4.761719v197.039062c-28.566406-10.003906-61.042969-10.671875-79.078125-10.042969-23.195312.804688-45.28125 4.429688-60.386719 9.667969v-201.503906c29.515625-13.644532 97.394531-12.402344 127.382813-3.871094zm-142.492188 228.507812h-47.132812c-4.175782 0-7.558594 3.382813-7.558594 7.554688 0 4.175781 3.382812 7.558594 7.558594 7.558594h47.125l-.015625 22.164062-137.238281-.1875c-15.226563-.023437-37.878907-7.890625-37.878907-29.476562v-199.898438c0-3.882812 1.527344-7.542968 4.300781-10.308594 2.746094-2.738281 6.335938-4.214843 10.1875-4.234374l6.046876.023437v202.628906c0 10.636719 8.527343 19.289063 19.003906 19.289063h58.347656c4.171875 0 7.554688-3.382813 7.554688-7.558594 0-4.171875-3.382813-7.554688-7.554688-7.554688h-58.347656c-2.109375 0-3.890625-1.910156-3.890625-4.175781v-2.449219c44.824219-18.109374 114.414062-11.421874 139.492187-.324218zm0-23.128906c-15.117187-5.242187-37.210937-8.871094-60.410156-9.675781-18.03125-.625-50.515625.042969-79.082031 10.046875v-197.039062c0-4.019532.679687-4.558594.9375-4.761719 1.535156-1.214844 5.863281-2.445313 10.871093-3.875l.269532-.074219c30.011718-8.535156 97.929687-9.777344 127.410156 3.882812v201.496094zm150.683594 23.128906h-135.570312v-6.949218c25.058593-11.101563 94.625-17.792969 139.460937.324218v2.453126c0 2.261718-1.78125 4.171874-3.890625 4.171874zm-81.769531 165.800782v54.117187c0 14.832031-15.082031 26.898438-33.617188 26.898438-18.535156 0-33.617187-12.066407-33.617187-26.898438v-54.117187c0-12.75 11.152344-23.453125 26.0625-26.203125v31.164062c0 4.171875 3.382812 7.554688 7.554687 7.554688 4.175781 0 7.558594-3.382813 7.558594-7.554688v-31.164062c14.90625 2.75 26.058594 13.453125 26.058594 26.203125zm0 0"/></svg>