<svg height="512pt" viewBox="0 0 512 512" width="512pt" xmlns="http://www.w3.org/2000/svg"><path d="m512 256c0 141.386719-114.613281 256-256 256s-256-114.613281-256-256 114.613281-256 256-256 256 114.613281 256 256zm0 0" fill="#87c7ff"/><path d="m512 256c0-11.234375-.730469-22.296875-2.132812-33.144531l-135.476563-135.476563-15.71875 18.628906-27.480469-27.484374-7.851562 23.453124-35.84375-35.839843-17.714844 16.0625 9.292969 9.296875-3.125 9.410156-34.769531-34.769531-17.726563 16.0625 10.25 10.253906-5.257813 18.519531-32.40625-32.410156-21.703124 37.105469-61.796876 42.320312 79.878907 79.878907-6.195313 21.828124-79.179687-79.179687-15.53125 18.253906 87.238281 87.238281-4.101562 14.449219-73.066407-73.066406-15.46875 18.234375 81.082031 81.085938-1.273437 4.476562-57.015625-57.015625-15.777344 17.695313 29.558594 29.558593-12.183594 11.148438 42.859375 42.859375-10.8125 38.085937 98 98.003907c5.113281.304687 10.261719.476562 15.449219.476562 141.386719 0 256-114.613281 256-256zm0 0" fill="#4a98f7"/><g fill="#fff"><path d="m267.03125 399.03125c-.929688-6.570312 3.640625-12.640625 10.207031-13.5625 6.5625-.917969 12.632813 3.652344 13.550781 10.210938.929688 6.558593-3.648437 12.628906-10.210937 13.550781-.566406.078125-1.128906.121093-1.6875.121093-5.878906 0-11.019531-4.332031-11.859375-10.320312zm-36.179688 10.117188c-6.5625-.9375-11.113281-7.027344-10.171874-13.578126.949218-6.558593 7.03125-11.121093 13.589843-10.171874 6.558594.953124 11.109375 7.03125 10.171875 13.589843-.863281 5.980469-5.992187 10.292969-11.863281 10.292969-.566406 0-1.148437-.042969-1.726563-.132812zm81.636719-19.789063c-2.75-6.03125-.089843-13.148437 5.953125-15.890625 6.027344-2.75 13.136719-.078125 15.886719 5.953125 2.75 6.027344.082031 13.148437-5.949219 15.886719-1.609375.742187-3.300781 1.082031-4.957031 1.082031-4.5625 0-8.921875-2.609375-10.933594-7.03125zm-129.386719 5.71875c-6.023437-2.769531-8.660156-9.886719-5.890624-15.917969 2.757812-6.019531 9.890624-8.660156 15.910156-5.890625 6.019531 2.761719 8.660156 9.890625 5.898437 15.910157-2.019531 4.398437-6.371093 7-10.917969 6.992187-1.671874 0-3.371093-.351563-5-1.09375zm170.25-27.859375c-4.339843-5.019531-3.78125-12.597656 1.226563-16.929688 5.023437-4.328124 12.601563-3.777343 16.933594 1.242188 4.328125 5.007812 3.777343 12.589844-1.242188 16.917969-2.269531 1.960937-5.058593 2.921875-7.839843 2.921875-3.359376 0-6.710938-1.410156-9.078126-4.152344zm-212.050781.859375c-5-4.347656-5.53125-11.929687-1.179687-16.929687 4.347656-5 11.929687-5.527344 16.929687-1.179688 5 4.351562 5.527344 11.929688 1.179688 16.929688-2.371094 2.730468-5.710938 4.132812-9.058594 4.132812-2.792969 0-5.601563-.972656-7.871094-2.953125zm245.050781-33.597656c-5.570312-3.589844-7.160156-11.019531-3.5625-16.589844 3.589844-5.5625 11.019532-7.160156 16.589844-3.5625 5.5625 3.601563 7.160156 11.03125 3.5625 16.59375-2.300781 3.558594-6.152344 5.488281-10.089844 5.488281-2.230468 0-4.492187-.621094-6.5-1.929687zm-277.589843-4.03125c-3.589844-5.578125-1.972657-13 3.609375-16.578125 5.578125-3.582032 13-1.960938 16.578125 3.609375 3.582031 5.578125 1.960937 13-3.609375 16.578125-2.011719 1.292968-4.261719 1.910156-6.480469 1.910156-3.9375 0-7.808594-1.949219-10.097656-5.519531zm300.058593-36.640625c-6.359374-1.878906-9.992187-8.558594-8.109374-14.910156 1.878906-6.359376 8.550781-9.988282 14.910156-8.109376 6.347656 1.882813 9.980468 8.550782 8.109375 14.910157-1.550781 5.222656-6.320313 8.601562-11.511719 8.601562-1.117188 0-2.269531-.160156-3.398438-.492187zm-320.710937-8.660156c-1.847656-6.359376 1.800781-13.019532 8.160156-14.878907s13.03125 1.800781 14.878907 8.160157c1.863281 6.359374-1.789063 13.019531-8.160157 14.878906-1.117187.332031-2.25.480468-3.359375.480468-5.199218 0-9.988281-3.398437-11.519531-8.640624zm330.730469-36.71875c-6.628906-.007813-11.988282-5.398438-11.96875-12.019532 0-.050781 0-.109375 0-.160156s0-.109375 0-.171875c0-6.617187 5.367187-12 12-12 6.628906 0 12 5.382813 12 12v.242187.140626c-.019532 6.617187-5.390625 11.96875-12 11.96875-.011719 0-.019532 0-.03125 0zm-325.71875-.519532c-6.632813-.011718-12-5.390625-11.992188-12.019531.011719-6.621094 5.390625-11.992187 12.011719-11.980469 6.628906 0 12 5.378906 11.988281 12.011719-.007812 6.617187-5.378906 11.988281-12 11.988281zm307.679687-54.332031c-1.859375-6.359375 1.777344-13.027344 8.140625-14.886719 6.359375-1.863281 13.027344 1.777344 14.886719 8.136719 1.871094 6.363281-1.777344 13.03125-8.136719 14.890625-1.132812.332031-2.261718.492188-3.382812.492188-5.1875 0-9.96875-3.402344-11.507813-8.632813zm-304.460937 7.972656c-6.351563-1.871093-9.988282-8.539062-8.121094-14.902343 1.871094-6.359376 8.542969-10 14.902344-8.128907 6.359375 1.871094 9.988281 8.550781 8.117187 14.902344-1.527343 5.226563-6.316406 8.617187-11.5 8.617187-1.117187 0-2.269531-.160156-3.398437-.488281zm286.621094-47.011719c-3.589844-5.570312-1.980469-12.988281 3.597656-16.578124 5.570312-3.589844 12.992187-1.980469 16.582031 3.597656 3.589844 5.570312 1.980469 12.992187-3.589844 16.582031-2.011719 1.300781-4.261719 1.910156-6.492187 1.910156-3.9375 0-7.796875-1.941406-10.097656-5.511719zm-270.421876 3.449219c-5.570312-3.597656-7.167968-11.019531-3.578124-16.589843 3.589843-5.570313 11.019531-7.167969 16.589843-3.578126 5.570313 3.589844 7.167969 11.019532 3.578125 16.589844-2.300781 3.558594-6.160156 5.5-10.097656 5.5-2.230469 0-4.480469-.621094-6.492188-1.921875zm242.289063-35.898437c-5.007813-4.351563-5.539063-11.929688-1.199219-16.929688 4.339844-5.011718 11.921875-5.539062 16.929688-1.199218 5 4.339843 5.542968 11.917968 1.203125 16.929687-2.382813 2.730469-5.722657 4.128906-9.070313 4.128906-2.792968 0-5.589844-.960937-7.863281-2.929687zm-214.457031-1.328125c-4.339844-5.011719-3.800782-12.582031 1.207031-16.921875 5.011719-4.339844 12.59375-3.800782 16.933594 1.210937 4.339843 5.007813 3.789062 12.589844-1.222657 16.929688-2.269531 1.96875-5.058593 2.929687-7.847656 2.929687-3.363281 0-6.703125-1.410156-9.070312-4.148437zm178.359375-21.933594c-6.019531-2.757813-8.671875-9.878906-5.910157-15.90625 2.757813-6.023437 9.878907-8.671875 15.898438-5.910156 6.03125 2.757812 8.679688 9.878906 5.921875 15.910156-2.019531 4.398437-6.371094 7-10.921875 7-1.667969 0-3.367188-.351563-4.988281-1.09375zm-141.210938-6c-2.757812-6.027344-.097656-13.148437 5.929688-15.898437 6.03125-2.75 13.140625-.101563 15.902343 5.929687 2.75 6.03125.089844 13.152344-5.929687 15.902344-1.621094.738281-3.3125 1.089843-4.980469 1.089843-4.550781 0-8.910156-2.613281-10.921875-7.023437zm100.050781-6.089844c-6.570312-.9375-11.121093-7.019531-10.191406-13.578125.941406-6.558594 7.019532-11.109375 13.582032-10.179687 6.558593.941406 11.117187 7.019531 10.179687 13.578125-.851563 5.992187-5.992187 10.300781-11.859375 10.300781-.570312 0-1.140625-.039063-1.710938-.121094zm-56.53125-10.21875c-.929687-6.558593 3.632813-12.628906 10.191407-13.558593 6.558593-.941407 12.640625 3.628906 13.570312 10.1875.929688 6.5625-3.628906 12.640624-10.199219 13.570312-.570312.082031-1.140624.121094-1.703124.121094-5.878907 0-11.007813-4.328125-11.859376-10.320313zm0 0"/><path d="m157.050781 349.96875c-5-4.347656-12.582031-3.820312-16.929687 1.179688-4.351563 5-3.820313 12.582031 1.179687 16.929687 2.269531 1.980469 5.078125 2.953125 7.871094 2.953125 3.347656 0 6.6875-1.402344 9.058594-4.132812 4.347656-5 3.820312-12.578126-1.179688-16.929688zm0 0"/><path d="m141.578125 103.839844c-5.007813 4.339844-5.546875 11.910156-1.207031 16.921875 2.367187 2.738281 5.707031 4.148437 9.070312 4.148437 2.789063 0 5.578125-.960937 7.847656-2.929687 5.011719-4.339844 5.5625-11.921875 1.222657-16.929688-4.339844-5.011719-11.921875-5.550781-16.933594-1.210937zm0 0"/><path d="m193.121094 373.269531c-6.019532-2.769531-13.152344-.128906-15.910156 5.890625-2.769532 6.03125-.132813 13.148438 5.890624 15.917969 1.628907.742187 3.328126 1.09375 5 1.09375 4.546876.007813 8.898438-2.59375 10.917969-6.992187 2.761719-6.019532.121094-13.148438-5.898437-15.910157zm0 0"/></g><path d="m393.058594 160.050781c2.230468 0 4.480468-.609375 6.492187-1.910156 5.570313-3.589844 7.179688-11.011719 3.589844-16.582031-3.589844-5.578125-11.011719-7.1875-16.582031-3.597656-5.578125 3.589843-7.1875 11.007812-3.597656 16.578124 2.300781 3.570313 6.160156 5.511719 10.097656 5.511719zm0 0" fill="#e9edf5"/><path d="m400.800781 193.578125c1.539063 5.230469 6.320313 8.632813 11.507813 8.632813 1.121094 0 2.25-.160157 3.382812-.492188 6.359375-1.859375 10.007813-8.527344 8.136719-14.890625-1.859375-6.359375-8.527344-10-14.886719-8.136719-6.363281 1.859375-10 8.527344-8.140625 14.886719zm0 0" fill="#e9edf5"/><path d="m370.558594 103.960938c-5.007813-4.339844-12.589844-3.8125-16.929688 1.199218-4.339844 5-3.808594 12.578125 1.199219 16.929688 2.273437 1.96875 5.070313 2.929687 7.863281 2.929687 3.347656 0 6.6875-1.398437 9.070313-4.128906 4.339843-5.011719 3.796875-12.589844-1.203125-16.929687zm0 0" fill="#fff"/><path d="m399.378906 314.328125c-5.570312-3.597656-13-2-16.589844 3.5625-3.597656 5.570313-2.007812 13 3.5625 16.589844 2.007813 1.308593 4.269532 1.929687 6.5 1.929687 3.9375 0 7.789063-1.929687 10.089844-5.488281 3.597656-5.5625 2-12.992187-3.5625-16.59375zm0 0" fill="#e9edf5"/><path d="m354.578125 350.289062c-5.007813 4.332032-5.566406 11.910157-1.226563 16.929688 2.367188 2.742188 5.71875 4.152344 9.078126 4.152344 2.78125 0 5.570312-.960938 7.839843-2.921875 5.019531-4.328125 5.570313-11.910157 1.242188-16.917969-4.332031-5.019531-11.910157-5.570312-16.933594-1.242188zm0 0" fill="#fff"/><path d="m415.621094 270.789062c-6.359375-1.878906-13.03125 1.75-14.910156 8.109376-1.882813 6.351562 1.75 13.03125 8.109374 14.910156 1.128907.332031 2.28125.492187 3.398438.492187 5.191406 0 9.960938-3.378906 11.511719-8.601562 1.871093-6.359375-1.761719-13.027344-8.109375-14.910157zm0 0" fill="#e9edf5"/><path d="m328.71875 77.011719c-6.019531-2.761719-13.140625-.113281-15.898438 5.910156-2.761718 6.027344-.109374 13.148437 5.910157 15.90625 1.621093.742187 3.320312 1.09375 4.988281 1.09375 4.550781 0 8.902344-2.601563 10.921875-7 2.757813-6.03125.109375-13.152344-5.921875-15.910156zm0 0" fill="#e9edf5"/><path d="m418.871094 224.078125c-6.632813 0-12 5.382813-12 12v.171875.160156c-.019532 6.621094 5.339844 12.011719 11.96875 12.019532h.03125c6.609375 0 11.980468-5.351563 12-11.96875 0-.050782 0-.089844 0-.140626 0-.082031 0-.160156 0-.242187 0-6.617187-5.371094-12-12-12zm0 0" fill="#e9edf5"/><path d="m277.238281 385.46875c-6.566406.921875-11.136719 6.992188-10.207031 13.5625.839844 5.988281 5.980469 10.320312 11.859375 10.320312.558594 0 1.121094-.042968 1.6875-.121093 6.5625-.921875 11.140625-6.992188 10.210937-13.550781-.917968-6.558594-6.988281-11.128907-13.550781-10.210938zm0 0" fill="#fff"/><path d="m318.441406 373.46875c-6.042968 2.742188-8.703125 9.859375-5.953125 15.890625 2.011719 4.421875 6.371094 7.03125 10.933594 7.03125 1.65625 0 3.347656-.339844 4.957031-1.082031 6.03125-2.738282 8.699219-9.859375 5.949219-15.886719-2.75-6.03125-9.859375-8.703125-15.886719-5.953125zm0 0" fill="#fff"/><path d="m234.269531 385.398438c-6.558593-.949219-12.640625 3.613281-13.589843 10.171874-.941407 6.550782 3.609374 12.640626 10.171874 13.578126.578126.089843 1.160157.132812 1.726563.132812 5.871094 0 11-4.3125 11.863281-10.292969.9375-6.558593-3.613281-12.636719-10.171875-13.589843zm0 0" fill="#fff"/><path d="m280.960938 62.980469c-6.5625-.929688-12.640626 3.621093-13.582032 10.179687-.929687 6.558594 3.621094 12.640625 10.191406 13.578125.570313.082031 1.140626.121094 1.710938.121094 5.867188 0 11.007812-4.308594 11.859375-10.300781.9375-6.558594-3.621094-12.636719-10.179687-13.578125zm0 0" fill="#e9edf5"/><path d="m374.390625 419.46875h-203.816406c-22.199219 0-40.199219-18-40.199219-40.203125v-244.09375c0-26.394531 21.398438-47.792969 47.796875-47.792969h196.21875zm0 0" fill="#4a7aff"/><path d="m255.59375 87.378906h118.796875v332.089844h-118.796875zm0 0" fill="#0053bf"/><path d="m374.390625 430.054688h-195.277344c-26.917969 0-48.738281-21.820313-48.738281-48.738282 0-26.917968 21.820312-48.742187 48.738281-48.742187h195.277344zm0 0" fill="#0053bf"/><path d="m255.59375 332.574219h118.796875v97.480469h-118.796875zm0 0" fill="#1b3b6b"/><path d="m374.390625 407.949219h-194.308594c-14.710937 0-26.636719-11.925781-26.636719-26.632813 0-14.710937 11.925782-26.636718 26.636719-26.636718h194.308594zm0 0" fill="#fff"/><path d="m255.59375 354.679688h118.796875v53.269531h-118.796875zm0 0" fill="#e9edf5"/><path d="m177.460938 129.195312h168.707031v58.503907h-168.707031zm0 0" fill="#ffce00"/><path d="m255.59375 129.195312h90.570312v58.503907h-90.570312zm0 0" fill="#fdba12"/><path d="m342.421875 430.054688-27.464844-17.738282-27.460937 17.738282v-64.292969h54.925781zm0 0" fill="#fe6a16"/><path d="m314.9375 365.761719v46.570312l.019531-.015625 27.464844 17.738282v-64.292969zm0 0" fill="#f24500"/></svg>