<?xml version="1.0" encoding="UTF-8" standalone="no"?><!-- Generator: Gravit.io --><svg xmlns="http://www.w3.org/2000/svg" xmlns:xlink="http://www.w3.org/1999/xlink" style="isolation:isolate" viewBox="0 0 500 500" width="500pt" height="500pt"><defs><clipPath id="_clipPath_aaMYz5skihVzHJkhmA8ZkEh437M2130B"><rect width="500" height="500"/></clipPath></defs><g clip-path="url(#_clipPath_aaMYz5skihVzHJkhmA8ZkEh437M2130B)"><path d=" M 0 500 L 500 500 L 500 0 L 0 0 L 0 500 Z " fill="rgb(251,245,230)"/><clipPath id="_clipPath_2HYjDWkE0NzeaCIlQjswK1TYUeuIsB5w"><path d=" M 0 500 L 500 500 L 500 0 L 0 0 L 0 500 Z " fill="rgb(251,245,230)"/></clipPath><g clip-path="url(#_clipPath_2HYjDWkE0NzeaCIlQjswK1TYUeuIsB5w)"><path d=" M 472.611 179.394 C 466.756 168.054 457.309 158.944 446.729 153.489 C 437.51 148.735 427.542 146.452 417.422 145.791 C 417.424 145.79 417.425 145.789 417.427 145.789 C 371.444 141.747 322.096 162.166 290.966 196.25 C 299.762 188.554 309.823 182.617 320.485 177.802 C 305.363 189.173 291.784 203.23 280.552 219.492 C 279.918 220.41 279.292 221.338 278.672 222.272 C 273.991 228.209 269.71 234.441 266.017 241.051 C 256.358 258.339 250.896 278.492 253.7 298.096 C 256.503 317.7 268.405 336.467 286.385 344.768 C 282.386 340.012 278.95 334.802 276.076 329.297 C 279.551 332.243 283.33 334.734 287.132 336.801 C 315.598 352.278 350.05 351.709 379.311 339.364 C 381.626 338.387 383.918 337.339 386.184 336.221 C 400.867 328.976 414.368 318.991 426.433 307.008 C 424.332 309.568 422.17 312.078 419.935 314.521 C 412.901 322.206 405.216 329.297 396.981 335.679 C 391.826 339.675 385.564 344.992 379.032 348.534 C 415.388 334.492 447.278 309.006 468.816 276.508 C 478.997 261.145 487.04 243.817 488.311 225.43 C 489.464 208.752 484.307 191.133 472.611 179.394 Z " fill="rgb(157,212,196)"/><path d=" M 25.829 178.34 C 33.071 167.825 42.587 158.987 53.252 153.488 C 62.471 148.735 72.438 146.452 82.554 145.788 C 128.537 141.746 177.884 162.165 209.014 196.249 C 200.219 188.554 190.157 182.616 179.495 177.801 C 194.618 189.173 208.197 203.229 219.428 219.491 C 220.063 220.409 220.689 221.337 221.308 222.271 C 225.99 228.209 230.27 234.441 233.963 241.05 C 243.622 258.338 249.084 278.492 246.281 298.095 C 243.477 317.699 231.575 336.466 213.596 344.768 C 217.595 340.011 221.031 334.802 223.904 329.296 C 220.429 332.242 216.65 334.733 212.849 336.8 C 184.382 352.278 149.931 351.709 120.67 339.363 C 118.354 338.387 116.062 337.339 113.796 336.221 C 99.114 328.975 85.613 318.99 73.547 307.007 C 75.648 309.567 77.81 312.077 80.046 314.52 C 87.08 322.206 94.765 329.296 103 335.678 C 108.155 339.674 114.416 344.991 120.948 348.534 C 84.593 334.491 52.703 309.006 31.165 276.507 C 20.983 261.145 12.94 243.816 11.669 225.43 C 10.56 209.374 16.171 192.365 25.829 178.34 Z " fill="rgb(85,128,140)"/></g><clipPath id="_clipPath_1xa4pIWUHA6WNGQtodVFSF90FnX8rUb2"><path d=" M 290.966 196.25 C 299.762 188.554 309.823 182.617 320.486 177.802 L 320.486 177.802 C 305.363 189.173 291.784 203.23 280.552 219.492 L 280.552 219.492 C 279.918 220.41 279.292 221.337 278.672 222.272 L 278.672 222.272 C 273.991 228.209 269.711 234.441 266.017 241.051 L 266.017 241.051 C 256.359 258.338 250.897 278.492 253.7 298.096 L 253.7 298.096 C 256.504 317.7 268.405 336.466 286.384 344.768 L 286.384 344.768 C 282.386 340.012 278.95 334.802 276.077 329.297 L 276.077 329.297 C 279.552 332.243 283.331 334.734 287.132 336.8 L 287.132 336.8 C 315.598 352.279 350.051 351.709 379.311 339.364 L 379.311 339.364 C 381.626 338.387 383.918 337.339 386.185 336.221 L 386.185 336.221 C 400.867 328.976 414.368 318.99 426.434 307.008 L 426.434 307.008 C 424.333 309.568 422.17 312.078 419.935 314.521 L 419.935 314.521 C 412.901 322.206 405.216 329.296 396.981 335.679 L 396.981 335.679 C 391.826 339.675 385.564 344.991 379.032 348.534 L 379.032 348.534 C 415.388 334.492 447.278 309.007 468.816 276.508 L 468.816 276.508 C 478.997 261.145 487.04 243.817 488.311 225.431 L 488.311 225.431 C 489.464 208.752 484.307 191.133 472.612 179.394 L 472.612 179.394 C 466.756 168.053 457.309 158.944 446.728 153.488 L 446.728 153.488 C 437.51 148.734 427.542 146.452 417.422 145.791 L 417.422 145.791 C 417.424 145.79 415.908 131.443 415.91 131.442 L 415.91 131.442 C 413.448 131.226 410.981 131.12 408.512 131.12 L 408.512 131.12 C 364.853 131.12 320.43 163.991 290.966 196.25 Z " fill="rgb(255,255,255)"/></clipPath><g clip-path="url(#_clipPath_1xa4pIWUHA6WNGQtodVFSF90FnX8rUb2)"><path d=" M 319.257 288.142 C 315.938 280.825 312.035 276.658 304.079 279.932 C 298.894 282.066 295.118 286.315 292.535 291.188 C 287.264 301.132 286.248 313.513 286.717 324.462 C 287.3 338.049 293.233 352.184 304.967 359.06 C 308.073 360.88 312.037 362.124 315.196 360.396 C 318.209 358.747 319.347 355.053 320.097 351.7 C 323.607 336.003 324.555 319.736 322.891 303.737 C 322.336 298.404 321.471 293.025 319.257 288.142 Z " fill="rgb(169,111,91)"/><path d=" M 412.126 319.238 C 410.837 319.5 395.502 341.352 389.275 354.297 C 383.048 367.242 377.249 372.283 378.915 377.457 C 380.58 382.63 391.044 391.407 392.447 390.055 C 393.851 388.702 398.924 386.597 399.352 383.718 C 399.78 380.839 395.727 378.504 395.727 378.504 C 395.727 378.504 398.546 372.055 398.016 362.781 C 397.485 353.507 427.695 341.094 432.925 335.612 C 438.154 330.13 446.097 322.028 436.291 311.897 C 426.485 301.766 412.126 319.238 412.126 319.238 Z " fill="rgb(169,111,91)"/><path d=" M 433.26 291.353 C 427.883 277.137 423.95 259.288 410.26 251.163 C 396.571 243.037 352.596 234.669 338.436 237.432 C 324.276 240.195 314.171 244.884 306.74 253.28 C 297.97 263.19 286.823 280.713 283.907 284.744 C 290.126 294.761 303.232 305.488 309.736 315.32 L 309.462 308.98 L 306.245 348.693 C 349.189 369.248 387.114 351.823 387.114 351.823 C 390.532 333.759 399.653 297.844 399.653 297.844 L 408.437 323.011 C 430.479 323.725 441.786 312.623 441.786 312.623 C 441.786 312.623 438.637 305.569 433.26 291.353 Z " fill="rgb(98,159,164)"/><path d=" M 433.26 291.353 C 427.883 277.137 423.95 259.288 410.26 251.163 C 396.571 243.037 352.596 234.669 338.436 237.432 C 324.276 240.195 314.171 244.884 306.74 253.28 C 297.97 263.19 286.823 280.713 283.907 284.744 C 290.126 294.761 303.232 305.488 309.736 315.32 L 309.462 308.98 L 306.245 348.693 C 349.189 369.248 387.114 351.823 387.114 351.823 C 390.532 333.759 399.653 297.844 399.653 297.844 L 408.437 323.011 C 430.479 323.725 441.786 312.623 441.786 312.623 C 441.786 312.623 438.637 305.569 433.26 291.353 Z " fill="rgb(189,129,189)"/><path d=" M 351.841 244.827 C 351.841 244.827 348.203 256.823 345.679 274.825 L 350.666 276.118 L 347.622 273.736 L 353.853 245.202 L 351.841 244.827 Z " fill="rgb(168,99,159)"/><path d=" M 399.391 217.249 C 398.778 217.553 389.532 238.157 389.532 238.157 L 351.84 244.827 L 344.876 238.199 L 348.109 226.932 L 399.391 217.249 Z " fill="rgb(169,111,91)"/><path d=" M 348.109 226.932 L 344.926 238.025 C 355.34 240.921 367.272 238.043 377.051 233.417 C 385.019 229.648 391.311 225.419 395.91 217.906 L 348.109 226.932 Z " fill="rgb(148,95,80)"/><path d=" M 384.655 224.563 C 378.206 228.984 353.655 236.257 340.659 228.396 C 327.664 220.534 333.117 208.644 337.98 197.22 C 342.842 185.796 344.551 170.21 348.626 163.373 C 352.7 156.535 358.697 153.875 358.697 153.875 L 414.039 165.983 L 420.974 174.927 L 399.391 217.249 L 384.655 224.563 Z " fill="rgb(169,111,91)"/><path d=" M 362.059 205.022 C 362.136 205.262 359.066 206.516 353.768 206.716 C 353.108 206.737 352.416 206.739 351.695 206.713 C 351.005 206.673 350.108 206.721 349.13 206.131 C 348.122 205.5 347.725 204.242 347.828 203.217 C 347.866 202.689 348.015 202.156 348.267 201.671 C 348.505 201.206 348.815 200.793 349.145 200.431 C 349.809 199.698 350.542 199.168 351.179 198.587 C 351.836 198.008 352.521 197.433 353.171 196.794 C 354.513 195.565 355.799 194.182 357.087 192.745 C 362.194 186.928 365.543 180.672 367.499 175.983 C 369.493 171.289 370.233 168.172 370.58 168.248 C 370.825 168.289 370.622 171.553 368.948 176.53 C 367.317 181.488 364.052 188.135 358.734 194.188 C 357.396 195.684 356.045 197.111 354.629 198.369 C 353.943 199.022 353.218 199.607 352.521 200.192 C 351.819 200.794 351.118 201.285 350.62 201.808 C 350.106 202.343 349.805 202.845 349.746 203.394 C 349.678 203.96 349.841 204.412 350.142 204.622 C 350.46 204.872 351.108 204.97 351.803 205.026 C 352.488 205.094 353.147 205.138 353.779 205.167 C 358.838 205.369 361.989 204.68 362.059 205.022 Z " fill="rgb(148,95,80)"/><path d=" M 387.163 225.092 L 387.163 225.092 C 396.732 220.343 402.011 212.111 406.864 202.594 L 413.895 188.808 C 413.87 187.862 413.836 186.917 413.765 185.977 C 406.231 193.437 398.746 200.472 391.212 207.933 C 383.456 204.436 374.702 203.19 366.279 204.384 C 357.856 205.578 349.792 209.208 343.314 214.721 C 342.33 206.686 341.346 198.65 340.362 190.614 C 339.65 192.902 338.868 195.131 337.979 197.22 C 333.117 208.644 327.664 220.534 340.659 228.396 C 353.654 236.257 380.714 229.513 387.163 225.092 Z " fill="rgb(105,52,25)"/><path d=" M 364.759 215.108 C 363.816 215.215 362.835 215.243 361.946 214.913 C 361.056 214.582 360.273 213.824 360.156 212.882 C 359.978 211.448 361.349 210.263 362.73 209.838 C 364.111 209.412 365.616 209.442 366.955 208.899 C 368.333 208.34 369.408 207.226 370.704 206.498 C 372.001 205.769 373.817 205.525 374.839 206.605 C 375.613 207.422 375.631 208.751 375.139 209.763 C 374.647 210.775 373.744 211.524 372.81 212.151 C 370.413 213.759 367.627 214.783 364.759 215.108 Z " fill="rgb(122,76,51)"/><path d=" M 359.375 217.47 C 363.917 221.152 371.179 220.882 375.435 216.872 C 376.082 216.262 376.677 215.555 376.933 214.704 C 377.189 213.853 377.039 212.833 376.377 212.24 C 375.588 211.532 374.384 211.623 373.341 211.814 C 369.275 212.562 362.739 215.068 359.375 217.47 Z " fill="rgb(122,76,51)"/><path d=" M 369.678 218.539 C 367.187 219.138 364.567 219.197 362.051 218.712 C 360.868 218.484 359.675 218.12 358.74 217.361 C 357.805 216.602 357.173 215.378 357.394 214.194 C 357.643 212.857 358.892 211.904 360.194 211.51 C 361.496 211.116 362.883 211.152 364.237 211.021 C 366.928 210.761 369.549 209.818 371.789 208.305 C 373.198 207.354 374.676 206.118 376.36 206.347 C 377.968 206.566 379.133 208.179 379.24 209.798 C 379.346 211.416 378.595 212.985 377.596 214.263 C 375.122 217.43 373.585 217.6 369.678 218.539 Z " fill="rgb(140,32,92)"/><path d=" M 371.789 208.305 C 369.549 209.818 366.927 210.761 364.237 211.021 C 362.883 211.152 361.496 211.116 360.194 211.51 C 359.662 211.671 359.143 211.93 358.693 212.265 C 362.133 214.124 366.474 214.293 370.014 212.606 C 372.684 211.332 374.816 209.036 376.014 206.336 C 374.473 206.304 373.1 207.42 371.789 208.305 Z " fill="rgb(242,243,212)"/><path d=" M 365.791 219.029 C 367.1 219.005 368.406 218.844 369.678 218.538 C 373.585 217.599 375.122 217.429 377.596 214.263 C 378.595 212.984 379.346 211.416 379.24 209.797 C 379.221 209.506 379.156 209.218 379.072 208.935 C 378.777 209.065 378.486 209.201 378.206 209.343 C 373.493 211.729 369.265 215.05 365.791 219.029 Z " fill="rgb(186,80,117)"/><path d=" M 343.403 232.407 L 352.655 243.525 C 352.655 243.525 370.664 238.028 380.551 236.989 C 390.438 235.95 393.811 235.903 394.555 240.236 C 395.444 245.414 396.451 252.782 396.451 252.782 C 396.451 252.782 368.462 257.349 362.178 257.975 C 355.895 258.6 352.655 245.987 352.655 245.987 C 352.655 245.987 343.657 252.921 341.215 253.079 C 338.773 253.238 332.739 237.432 332.739 237.432 L 343.403 232.407 Z " fill="rgb(229,142,196)"/><path d=" M 355.937 258.717 C 355.937 259.493 355.308 260.122 354.532 260.122 C 353.756 260.122 353.127 259.493 353.127 258.717 C 353.127 257.941 353.756 257.313 354.532 257.313 C 355.308 257.313 355.937 257.941 355.937 258.717 Z " fill="rgb(168,99,159)"/><path d=" M 353.648 268.613 C 353.648 269.389 353.019 270.018 352.243 270.018 C 351.467 270.018 350.838 269.389 350.838 268.613 C 350.838 267.837 351.467 267.208 352.243 267.208 C 353.019 267.208 353.648 267.837 353.648 268.613 Z " fill="rgb(168,99,159)"/><path d=" M 315.302 252.067 C 315.302 252.067 306.07 300.451 305.6 301.177 C 305.425 301.448 303.458 302.962 301.066 304.75 C 304.054 307.987 306.841 311.19 309.03 314.31 L 309.019 314.445 C 309.306 314.754 315.302 252.067 315.302 252.067 Z " fill="rgb(168,99,159)"/><path d=" M 393.177 314.787 C 390.88 325.217 378.675 346.185 363.184 351.505 C 347.693 356.825 327.194 321.438 325.943 321.684 C 324.691 321.931 343.725 351.046 335.694 351.823 C 329.598 352.413 314.263 341.738 307.227 336.56 L 306.244 348.693 C 349.188 369.248 387.114 351.823 387.114 351.823 C 390.531 333.759 399.652 297.844 399.652 297.844 L 396.451 284.765 C 396.451 284.765 395.474 304.357 393.177 314.787 Z " fill="rgb(168,99,159)"/><path d=" M 363.666 179.967 C 363.459 182.467 362.006 184.388 360.422 184.257 C 358.837 184.125 357.721 181.992 357.928 179.492 C 358.135 176.991 359.588 175.071 361.172 175.202 C 362.757 175.333 363.873 177.467 363.666 179.967 Z " fill="rgb(122,76,51)"/><path d=" M 362.662 179.884 C 362.527 181.51 361.583 182.758 360.553 182.673 C 359.522 182.588 358.796 181.201 358.931 179.575 C 359.066 177.949 360.01 176.7 361.041 176.786 C 362.071 176.871 362.797 178.258 362.662 179.884 Z " fill="rgb(105,52,25)"/><path d=" M 363.148 178.641 C 363.148 178.962 362.888 179.223 362.566 179.223 C 362.245 179.223 361.985 178.962 361.985 178.641 C 361.985 178.32 362.245 178.059 362.566 178.059 C 362.888 178.059 363.148 178.32 363.148 178.641 Z " fill="rgb(251,245,230)"/><path d=" M 380.837 184.112 C 380.316 186.566 378.632 188.288 377.077 187.958 C 375.522 187.627 374.684 185.37 375.205 182.916 C 375.726 180.461 377.41 178.74 378.965 179.07 C 380.52 179.4 381.358 181.658 380.837 184.112 Z " fill="rgb(122,76,51)"/><path d=" M 379.851 183.903 C 379.512 185.499 378.417 186.618 377.406 186.403 C 376.395 186.189 375.85 184.721 376.189 183.125 C 376.528 181.529 377.623 180.41 378.634 180.625 C 379.645 180.84 380.19 182.307 379.851 183.903 Z " fill="rgb(105,52,25)"/><path d=" M 380.491 182.731 C 380.45 183.05 380.159 183.275 379.841 183.235 C 379.522 183.194 379.296 182.903 379.337 182.584 C 379.378 182.265 379.669 182.04 379.987 182.081 C 380.306 182.121 380.532 182.412 380.491 182.731 Z " fill="rgb(251,245,230)"/><path d=" M 393.334 172.241 C 393.786 172.794 394.189 173.411 394.345 174.108 C 394.5 174.804 394.373 175.596 393.877 176.109 C 393.165 176.847 391.937 176.798 391.01 176.361 C 390.083 175.924 389.341 175.181 388.489 174.61 C 387.155 173.716 385.536 173.254 383.931 173.308 C 382.659 173.35 381.142 173.617 380.319 172.646 C 379.679 171.889 379.86 170.674 380.505 169.922 C 381.15 169.17 382.137 168.803 383.107 168.604 C 386.833 167.84 390.927 169.297 393.334 172.241 Z " fill="rgb(105,52,25)"/><path d=" M 365.145 163.136 C 365.73 163.545 366.286 164.028 366.626 164.656 C 366.966 165.284 367.059 166.081 366.722 166.71 C 366.238 167.614 365.043 167.902 364.032 167.733 C 363.021 167.565 362.104 167.053 361.129 166.736 C 359.602 166.24 357.919 166.235 356.389 166.725 C 355.176 167.113 353.789 167.783 352.733 167.072 C 351.911 166.519 351.754 165.3 352.169 164.401 C 352.585 163.502 353.435 162.879 354.314 162.424 C 357.69 160.674 362.027 160.959 365.145 163.136 Z " fill="rgb(105,52,25)"/><path d=" M 351.272 159.728 C 359.076 148.951 376.604 135.439 397.62 140.101 C 418.636 144.762 426.638 154.275 428.466 165.82 C 430.293 177.365 425.679 190.742 416.815 198.153 L 409.479 194.246 L 413.765 185.976 L 412.728 170.899 C 412.728 170.899 398.305 168.862 393.353 161.457 C 393.353 161.457 373.257 166.938 365.256 155.395 L 351.272 159.728 Z " fill="rgb(105,52,25)"/><path d=" M 405.574 199.872 C 406.64 197.837 407.744 195.751 409.48 194.246 C 411.216 192.741 413.751 191.928 415.86 192.839 C 417.345 193.481 418.406 194.887 418.914 196.422 C 419.422 197.957 419.432 199.615 419.265 201.223 C 418.937 204.38 417.914 207.515 415.983 210.034 C 414.053 212.554 411.161 214.408 408.004 214.735 C 404.426 215.106 400.049 213.895 400.857 209.738 C 401.557 206.139 403.936 203.001 405.574 199.872 Z " fill="rgb(169,111,91)"/><path d=" M 406.39 210.524 C 407.258 207.142 408.637 203.809 409.764 200.497 C 410.199 199.216 410.704 197.843 411.831 197.095 C 412.63 196.566 413.731 196.451 414.551 196.947 C 415.372 197.442 415.777 198.592 415.32 199.435 C 414.84 200.322 413.674 200.615 413.079 201.43 C 412.373 202.397 412.68 203.744 413.066 204.878 C 413.627 206.527 413.848 208.184 412.201 209.3 C 411.82 209.559 406.29 210.916 406.39 210.524 Z " fill="rgb(148,95,80)"/></g><clipPath id="_clipPath_hPNU4KN4TpNpTO6sARnjfsbhH5TXOPr8"><path d=" M 95.818 131.511 C 85.703 132.174 62.471 148.734 53.252 153.488 L 53.252 153.488 C 42.588 158.987 33.07 167.825 25.829 178.34 L 25.829 178.34 C 16.171 192.365 10.56 209.375 11.669 225.43 L 11.669 225.43 C 12.941 243.817 20.984 261.145 31.165 276.508 L 31.165 276.508 C 52.703 309.007 84.594 334.492 120.948 348.534 L 120.948 348.534 C 114.417 344.991 108.155 339.675 103 335.679 L 103 335.679 C 94.766 329.296 87.08 322.206 80.046 314.521 L 80.046 314.521 C 77.81 312.078 75.649 309.568 73.547 307.008 L 73.547 307.008 C 85.613 318.99 99.114 328.976 113.797 336.221 L 113.797 336.221 C 116.062 337.339 118.355 338.387 120.67 339.364 L 120.67 339.364 C 149.931 351.709 184.383 352.279 212.849 336.8 L 212.849 336.8 C 216.651 334.734 220.43 332.243 223.905 329.297 L 223.905 329.297 C 221.031 334.802 217.596 340.012 213.596 344.768 L 213.596 344.768 C 231.575 336.466 243.478 317.7 246.281 298.096 L 246.281 298.096 C 249.085 278.492 243.623 258.338 233.963 241.051 L 233.963 241.051 C 230.27 234.441 225.99 228.209 221.309 222.272 L 221.309 222.272 C 220.689 221.337 220.063 220.41 219.429 219.492 L 219.429 219.492 C 208.197 203.23 194.619 189.173 179.496 177.802 L 179.496 177.802 C 190.157 182.617 200.218 188.554 209.015 196.25 L 209.015 196.25 C 179.553 163.993 145.66 131.186 103.132 131.189 L 103.132 131.189 C 100.724 131.189 98.283 131.295 95.818 131.511 Z " fill="rgb(255,255,255)"/></clipPath><g clip-path="url(#_clipPath_hPNU4KN4TpNpTO6sARnjfsbhH5TXOPr8)"><path d=" M 126.598 250.508 C 126.227 222.612 122.018 194.769 114.126 168.01 C 112.694 163.159 111.057 158.187 107.69 154.414 C 101.459 147.433 90.195 146.376 81.884 150.675 C 73.571 154.973 68.148 163.675 66.084 172.802 C 64.021 181.928 64.959 191.481 66.824 200.651 C 68.687 209.821 71.458 218.795 73.088 228.01 C 73.929 232.766 74.452 237.73 73.108 242.37 C 71.767 247.009 68.173 251.276 63.42 252.126 C 67.111 253.565 71.554 252.853 74.612 250.334 C 77.667 247.815 79.215 243.589 78.51 239.691 C 79.884 244.548 79.649 249.983 77.179 254.385 C 74.708 258.787 69.822 261.93 64.783 261.657 C 59.742 261.385 54.983 257.28 54.596 252.247 C 50.729 259.391 52.147 268.679 56.98 275.209 C 61.813 281.739 69.563 285.69 77.542 287.208 C 85.524 288.726 93.768 288.014 101.774 286.638 C 106.92 285.753 112.185 284.522 116.386 281.422 C 120.928 278.069 123.775 272.802 125.179 267.334 C 126.584 261.866 126.673 256.153 126.598 250.508 Z " fill="rgb(189,129,189)"/><path d=" M 111.342 186.704 L 89.442 182.601 C 85.563 191.093 84.856 200.991 87.489 209.948 C 90.173 219.082 96.104 227.01 98.706 236.168 C 103.349 252.512 96.791 269.718 90.341 285.437 C 100.42 288.077 111.466 284.93 119.62 278.399 C 122.32 275.274 124.144 271.362 125.179 267.334 C 126.584 261.866 126.673 256.153 126.598 250.508 C 126.354 232.132 124.433 213.781 120.902 195.745 C 118.046 192.408 114.851 189.364 111.342 186.704 Z " fill="rgb(168,99,159)"/><path d=" M 162.41 265.83 C 170.021 264.402 181.119 268.659 186.602 283.925 C 192.086 299.191 203.956 319.726 203.956 319.726 C 203.956 319.726 203.663 309.754 204.9 292.039 C 206.208 273.319 206.633 261.441 202.444 253.751 C 198.254 246.061 193.529 234.232 194.132 233.13 C 194.734 232.028 202.729 241.209 202.501 243.468 C 202.274 245.727 203.113 233.567 204.44 227.12 C 205.767 220.673 208.028 216.9 208.718 217.579 C 209.407 218.257 206.666 234.462 206.666 234.462 C 206.666 234.462 211.401 221.398 213.217 220.915 C 215.034 220.432 211.223 233.726 210.426 237.407 C 210.426 237.407 215.27 226.196 216.697 225.971 C 218.123 225.747 213.332 239.859 213.135 242.467 C 213.135 242.467 217.352 232.613 218.428 232.511 C 219.504 232.409 213.135 247.079 213.864 257.431 C 214.593 267.784 222.095 293.024 221.102 319.726 C 220.062 347.687 209.284 353.187 205.484 352.704 C 201.684 352.221 178.718 330.221 176.075 315.604 C 173.433 300.988 162.41 265.83 162.41 265.83 Z " fill="rgb(231,188,168)"/><path d=" M 205.673 267.677 C 206.03 274.147 205.593 282.125 204.901 292.038 C 203.663 309.754 203.956 319.726 203.956 319.726 C 203.956 319.726 192.086 299.191 186.603 283.924 C 181.119 268.658 166.25 262.063 158.64 263.492 C 158.64 263.492 173.433 300.988 176.075 315.604 C 178.718 330.22 201.685 352.22 205.485 352.703 C 209.284 353.187 220.063 347.686 221.102 319.726 C 221.87 299.084 217.563 279.322 215.231 266.63 C 212.058 267.081 208.862 267.335 205.673 267.677 Z " fill="rgb(98,159,164)"/><path d=" M 203.259 328.482 C 203.981 329.205 205.278 328.976 206.016 328.27 C 206.754 327.564 207.071 326.537 207.348 325.553 C 210.723 313.539 212.152 300.981 211.564 288.515 C 211.21 280.999 209.769 272.823 204.093 267.884 C 205.365 268.991 204.257 273.649 203.939 274.998 C 203.428 277.162 202.897 279 201.703 280.805 C 199.341 284.376 198.272 288.576 199.986 292.7 C 200.606 294.19 201.545 295.601 201.668 297.21 C 201.801 298.935 200.975 300.568 200.5 302.233 C 199.366 306.205 200.987 309.908 201.189 313.836 C 201.441 318.751 202.057 323.706 203.259 328.482 Z " fill="rgb(98,159,164)"/><path d=" M 185.876 278.151 C 184.605 276.418 182.959 274.317 181.688 272.584 C 180.301 275.24 177.829 277.308 174.969 278.202 C 176.132 280.128 177.116 282.134 178.277 284.059 C 181.484 283.103 184.187 281.039 185.876 278.151 Z " fill="rgb(231,188,168)"/><path d=" M 185.876 278.151 C 184.605 276.418 182.959 274.317 181.688 272.584 C 180.301 275.24 177.829 277.308 174.969 278.202 C 176.132 280.128 177.116 282.134 178.277 284.059 C 181.484 283.103 184.187 281.039 185.876 278.151 Z " fill="rgb(85,128,140)"/><path d=" M 157.837 255.363 C 152.616 255.417 147.395 255.47 142.175 255.524 L 141.007 266.568 C 146.266 269.371 152.863 269.971 158.446 267.885 C 158.209 263.574 158.074 259.674 157.837 255.363 Z " fill="rgb(98,159,164)"/><path d=" M 125.158 264.786 L 97.913 272.699 C 97.913 272.699 107.661 276.518 107.85 304.023 L 121.408 356.086 C 121.408 356.086 145.964 365.135 169.35 353.889 L 176.79 315.804 C 176.79 315.804 191.46 306.379 182.815 290.78 C 174.639 276.027 161.599 264.639 161.599 264.639 L 146.008 263.173 L 125.158 264.786 Z " fill="rgb(231,188,168)"/><path d=" M 146.009 263.173 L 143.325 239.519 C 141.67 237.824 139.491 236.759 137.359 235.728 C 128.04 231.219 118.721 226.711 109.402 222.203 C 109.013 223.711 108.624 225.219 108.234 226.727 C 107.914 226.914 107.593 227.102 107.272 227.289 C 114.062 235.76 122.979 256.703 125.179 267.334 C 133.651 268.737 138.763 266.468 146.009 263.173 Z " fill="rgb(231,188,168)"/><path d=" M 125.737 233.043 L 111.955 232.707 C 119.147 243.678 131.644 250.976 144.728 251.887 L 143.325 239.519 C 142.911 239.095 142.465 238.711 141.994 238.356 C 141.524 238.002 141.03 237.678 140.521 237.374 C 139.502 236.767 138.424 236.243 137.358 235.727 C 136.544 235.334 135.73 234.94 134.917 234.546 C 131.931 233.681 128.844 233.168 125.737 233.043 Z " fill="rgb(226,147,142)"/><path d=" M 94.078 197.866 C 93.257 181.957 100.743 165.291 114.524 157.3 C 128.306 149.31 148.019 151.939 157.609 164.66 C 162.592 171.271 164.55 179.63 166.05 187.772 C 167.716 196.824 168.969 205.953 169.803 215.119 C 170.487 222.652 170.744 230.799 166.625 237.142 C 161.26 245.406 150.08 247.886 140.285 246.813 C 128.153 245.484 116.556 239.715 108.178 230.84 C 99.799 221.964 94.707 210.055 94.078 197.866 Z " fill="rgb(231,188,168)"/><path d=" M 153.474 216.598 C 153.514 216.417 153.894 216.37 154.375 216.102 C 154.843 215.852 155.479 215.298 155.709 214.475 C 155.964 213.631 155.843 212.469 155.271 211.247 C 154.718 210.032 153.698 208.554 152.9 206.881 C 151.258 203.569 150.345 200.323 149.966 197.947 C 149.589 195.562 149.694 194.055 150.029 194 C 150.748 193.886 152.057 199.511 155.175 205.758 C 155.914 207.33 156.822 208.708 157.442 210.382 C 158.058 212.026 158.077 213.875 157.351 215.195 C 156.612 216.558 155.383 217.043 154.599 217.064 C 153.781 217.083 153.427 216.745 153.474 216.598 Z " fill="rgb(226,147,142)"/><path d=" M 118.395 210.277 C 117.342 210.689 116.571 211.741 116.494 212.87 C 116.42 213.998 117.045 215.143 118.033 215.691 C 119.791 216.665 122.343 215.273 122.477 213.269 C 122.61 211.264 120.265 209.546 118.395 210.277 Z " fill="rgb(226,147,142)"/><path d=" M 163.317 208.923 C 162.264 209.335 161.493 210.387 161.417 211.516 C 161.342 212.644 161.967 213.79 162.956 214.337 C 164.713 215.311 167.266 213.919 167.4 211.915 C 167.533 209.91 165.188 208.192 163.317 208.923 Z " fill="rgb(226,147,142)"/><path d=" M 138.186 218.645 C 143.015 224.34 151.464 226.647 158.516 224.196" fill="none" vector-effect="non-scaling-stroke" stroke-width="1" stroke="rgb(226,147,142)" stroke-linejoin="miter" stroke-linecap="square" stroke-miterlimit="3"/><path d=" M 154.624 222.682 C 155.654 223.464 155.416 225.199 154.477 226.088 C 153.537 226.977 152.18 227.235 150.899 227.411 C 148.58 227.732 146.111 227.895 143.999 226.885 C 141.887 225.875 140.351 223.31 141.244 221.147 L 147.297 220.487 C 147.77 221.776 148.244 223.065 148.717 224.354 L 154.624 222.682 Z " fill="rgb(226,147,142)"/><path d=" M 105.425 155.892 C 102.919 152.757 97.516 152.861 93.814 154.424 C 89.711 156.156 86.445 159.766 85.131 164.022 C 84.321 166.644 84.383 169.861 86.413 171.707 C 88.265 173.39 91.111 173.36 93.539 172.753 C 98.959 171.398 107.574 165.548 106.719 159.084 C 106.546 157.772 106.086 156.719 105.425 155.892 Z " fill="rgb(251,245,230)"/><path d=" M 97.504 207.69 C 101.598 212.83 105.692 217.969 109.786 223.109 C 111.225 222.309 112.664 221.509 114.103 220.71 C 113.723 212.167 111.669 203.702 108.092 195.935 C 112.604 196.206 117.644 195.496 120.726 192.19 C 123.808 188.883 125.319 184.171 124.732 179.689 C 124.6 178.68 124.981 178.333 125.276 177.36 L 161.322 173.628 C 162.262 165.386 157.897 157.059 151.252 152.093 C 144.608 147.126 136.005 145.258 127.72 145.683 C 112.671 146.455 98.214 152.673 90.8 165.913 C 87.061 172.589 85.327 182.436 85.846 190.071 C 86.251 196.036 86.991 205.44 92.853 208.82 C 94.838 209.965 97.1 210.02 99.267 209.378" fill="rgb(189,129,189)"/><path d=" M 167.652 165.377 C 172.019 172.061 174.873 179.505 176 187.15 C 168.061 186.331 134.007 190.214 125.367 189.437 C 121.921 184.258 119.556 176.08 118.562 170.144 C 135.443 168.692 150.771 166.829 167.652 165.377 Z " fill="rgb(229,142,196)"/><path d=" M 134.671 194.979 C 136.304 195.021 137.937 194.248 138.939 192.958 C 138.62 194.731 137.05 196.203 135.261 196.408 C 135.064 195.932 134.868 195.455 134.671 194.979 Z " fill="rgb(74,85,82)"/><path d=" M 136.484 197.969 C 136.708 201.101 135.28 203.755 133.295 203.897 C 131.31 204.039 129.52 201.615 129.296 198.483 C 129.072 195.35 130.5 192.696 132.485 192.555 C 134.47 192.413 136.26 194.837 136.484 197.969 Z " fill="rgb(79,111,76)"/><path d=" M 135.227 198.059 C 135.373 200.095 134.444 201.821 133.154 201.913 C 131.863 202.006 130.699 200.429 130.553 198.393 C 130.408 196.356 131.336 194.631 132.627 194.539 C 133.917 194.446 135.081 196.022 135.227 198.059 Z " fill="rgb(74,85,82)"/><path d=" M 135.589 196.428 C 135.651 196.825 135.379 197.197 134.981 197.259 C 134.584 197.321 134.212 197.049 134.15 196.651 C 134.089 196.254 134.361 195.882 134.758 195.82 C 135.155 195.759 135.527 196.031 135.589 196.428 Z " fill="rgb(251,245,230)"/><path d=" M 158.417 193.465 C 160.05 193.507 161.683 192.734 162.685 191.444 C 162.366 193.217 160.796 194.689 159.007 194.894 C 158.81 194.418 158.614 193.941 158.417 193.465 Z " fill="rgb(74,85,82)"/><path d=" M 160.23 196.455 C 160.454 199.587 159.026 202.241 157.041 202.383 C 155.056 202.525 153.266 200.101 153.042 196.969 C 152.818 193.836 154.246 191.182 156.231 191.041 C 158.216 190.899 160.006 193.323 160.23 196.455 Z " fill="rgb(79,111,76)"/><path d=" M 158.973 196.545 C 159.119 198.582 158.19 200.307 156.9 200.399 C 155.609 200.492 154.445 198.915 154.299 196.879 C 154.154 194.842 155.082 193.117 156.373 193.025 C 157.663 192.932 158.827 194.509 158.973 196.545 Z " fill="rgb(74,85,82)"/><path d=" M 159.335 194.914 C 159.397 195.311 159.125 195.683 158.727 195.745 C 158.33 195.807 157.958 195.535 157.896 195.137 C 157.835 194.74 158.107 194.368 158.504 194.306 C 158.901 194.245 159.273 194.517 159.335 194.914 Z " fill="rgb(251,245,230)"/><path d=" M 138.364 187.933 C 137.989 186.151 136.42 184.801 134.693 184.222 C 132.966 183.644 131.093 183.712 129.28 183.886 C 127.502 184.058 125.696 184.336 124.108 185.156 C 122.521 185.974 121.168 187.421 120.871 189.182 C 126.157 186.282 132.719 185.812 138.364 187.933 Z " fill="rgb(111,39,56)"/><path d=" M 163.099 186.063 C 161.884 183.386 158.807 181.687 155.894 182.083 C 152.98 182.48 150.471 184.94 150.016 187.845 C 153.662 185.027 158.832 184.323 163.099 186.063 Z " fill="rgb(111,39,56)"/><path d=" M 101.577 212.449 C 100.616 210.614 99.62 208.734 98.056 207.377 C 96.491 206.02 94.205 205.287 92.304 206.109 C 90.966 206.687 90.009 207.955 89.551 209.339 C 89.092 210.723 89.083 212.217 89.234 213.667 C 89.53 216.513 90.452 219.339 92.193 221.61 C 93.933 223.882 96.54 225.553 99.387 225.848 C 102.612 226.183 106.558 225.091 105.829 221.343 C 105.198 218.099 103.054 215.27 101.577 212.449 Z " fill="rgb(231,188,168)"/><path d=" M 100.842 222.051 C 100.059 219.002 98.816 215.997 97.801 213.011 C 97.408 211.857 96.953 210.618 95.937 209.945 C 95.217 209.467 94.224 209.364 93.483 209.811 C 92.745 210.257 92.38 211.294 92.791 212.054 C 93.224 212.854 94.274 213.118 94.812 213.853 C 95.447 214.724 95.17 215.939 94.824 216.961 C 94.318 218.448 94.117 219.942 95.602 220.948 C 95.947 221.181 100.932 222.404 100.842 222.051 Z " fill="rgb(226,147,142)"/><path d=" M 182.945 292.175 C 174.378 276.947 160.551 266.098 160.551 266.098 L 158.64 263.492 C 152.582 268.482 144.931 271.544 137.09 272.002 C 129.559 272.442 121.929 270.467 115.491 266.545 L 95.818 272.174 C 95.818 272.174 106.032 276.115 106.231 304.506 L 120.437 358.244 C 120.437 358.244 146.167 367.585 170.671 355.977 L 178.467 316.666 C 178.467 316.666 192.003 308.276 182.945 292.175 Z " fill="rgb(223,142,94)"/><path d=" M 87.462 343.259 C 93.276 347.367 99.287 351.161 105.501 354.63 C 105.942 341.709 107.995 304.722 107.995 304.722 C 107.995 304.722 110.797 288.876 106.701 280.384 C 102.606 271.892 97.356 271.688 97.356 271.688 C 86.148 276.089 81.639 291.238 86.373 323.157 C 87.602 331.439 87.811 337.88 87.462 343.259 Z " fill="rgb(157,212,196)"/><path d=" M 94.065 294.22 C 89.491 294.598 84.904 293.377 81.051 290.885 C 81.784 288.063 82.701 285.801 83.434 282.979 C 86.214 285.54 90.013 286.962 93.791 286.853 C 93.862 289.859 93.995 291.214 94.065 294.22 Z " fill="rgb(98,159,164)"/><path d=" M 128.307 255.363 C 123.086 255.417 117.864 255.47 112.645 255.524 L 111.477 266.568 C 116.736 269.371 123.333 269.971 128.916 267.885 C 128.679 263.574 128.544 259.674 128.307 255.363 Z " fill="rgb(98,159,164)"/><path d=" M 217.919 269.346 C 218.091 269.903 218.263 270.46 218.436 271.018 C 217.848 267.182 217.259 263.347 216.671 259.511 C 211.864 260.169 207.057 260.827 202.25 261.484 C 202.184 265.005 201.606 268.378 201.54 271.9 C 207.189 273.22 213.211 272.841 218.723 271.034" fill="rgb(157,212,196)"/><path d=" M 128.915 267.885 L 135.082 267.756 L 148.14 364.969 L 117.297 362.601 L 115.738 346.572 L 110.444 336.662 L 111.955 334.916 L 103.324 299.763 L 97.356 271.688 L 111.476 266.568 L 128.915 267.885 Z " fill="rgb(157,212,196)"/><path d=" M 117.297 342.031 L 122.999 344.207 L 113.25 319.728 L 107.49 291.205 L 106.968 314.606 L 111.954 334.916 L 110.444 336.662 L 115.738 346.572 L 117.297 362.601 L 127.581 363.391 L 117.297 342.031 Z " fill="rgb(98,159,164)"/><path d=" M 158.64 263.492 L 146.009 263.173 L 168.924 360.415 L 172.086 359.528 L 180.423 317.613 C 180.423 317.613 189.594 311.602 188.366 299.763 C 187.397 290.428 171.906 273.489 165.396 266.741 C 163.604 264.884 161.21 263.73 158.64 263.492 Z " fill="rgb(157,212,196)"/></g><clipPath id="_clipPath_CtbDGl34yVnt8aTfc3GiQeA38gURd3j5"><path d=" M 0 0 L 500 0 L 500 500 L 0 500 L 0 0 Z " fill="rgb(255,255,255)"/></clipPath><g clip-path="url(#_clipPath_CtbDGl34yVnt8aTfc3GiQeA38gURd3j5)"><path d=" M 259.751 86.512 C 232.99 82.878 205.67 83.393 179.066 88.034 C 177.627 105.717 177.311 124.067 180.238 141.566 C 205.518 146.086 234.349 146.529 259.511 141.39 C 262.872 123.377 262.593 104.614 259.751 86.512 Z " fill="rgb(157,212,196)"/><path d=" M 200.058 135.471 C 193.802 146.686 183.954 155.861 172.325 161.308 C 186.132 158.396 198.542 149.367 205.186 136.918 C 203.808 136.318 201.436 136.071 200.058 135.471 Z " fill="rgb(157,212,196)"/><path d=" M 330.978 184.196 C 322.323 180.142 314.657 174.02 308.722 166.532 C 313.593 165.984 318.39 165.29 323.064 164.454 C 325.992 146.956 325.675 128.605 324.237 110.922 C 297.632 106.281 270.312 105.766 243.552 109.4 C 240.709 127.502 240.431 146.265 243.792 164.278 C 262.486 168.096 283.204 168.828 302.988 167.101 C 310 175.738 320.045 181.89 330.978 184.196 Z " fill="rgb(223,208,182)"/><path d=" M 206.465 131.359 C 205.553 131.359 204.674 130.859 204.234 129.99 C 203.609 128.759 204.1 127.254 205.332 126.629 C 214.982 121.731 222.686 112.645 225.94 102.323 C 226.355 101.006 227.759 100.274 229.076 100.691 C 230.393 101.106 231.124 102.51 230.709 103.826 C 227.005 115.576 218.58 125.512 207.594 131.088 C 207.232 131.272 206.845 131.359 206.465 131.359 Z " fill="rgb(85,128,140)"/><path d=" M 202.228 105.414 C 200.925 105.414 199.827 104.404 199.736 103.084 C 199.642 101.707 200.683 100.514 202.06 100.42 C 213.477 99.64 225.054 99.597 236.472 100.292 C 237.85 100.376 238.899 101.561 238.815 102.94 C 238.731 104.318 237.562 105.368 236.167 105.283 C 224.963 104.601 213.604 104.643 202.401 105.408 C 202.343 105.412 202.285 105.414 202.228 105.414 Z " fill="rgb(85,128,140)"/><path d=" M 230.291 131.614 C 229.827 131.614 229.358 131.485 228.939 131.215 C 222.083 126.797 216.21 120.651 209.897 111.288 C 209.125 110.144 209.428 108.59 210.573 107.818 C 211.718 107.045 213.271 107.349 214.043 108.493 C 219.959 117.267 225.389 122.978 231.647 127.012 C 232.808 127.76 233.143 129.307 232.395 130.468 C 231.917 131.21 231.112 131.614 230.291 131.614 Z " fill="rgb(85,128,140)"/><path d=" M 219.04 104.636 C 217.66 104.636 216.54 103.517 216.54 102.136 L 216.538 96.812 C 216.538 95.432 217.657 94.312 219.038 94.312 L 219.038 94.312 C 220.418 94.312 221.538 95.43 221.538 96.811 L 221.54 102.136 C 221.54 103.516 220.421 104.636 219.04 104.636 Z " fill="rgb(85,128,140)"/></g><text transform="matrix(3.691,0,0,3.691,264.949,164.828)" style="font-family:'Open Sans';font-weight:400;font-size:16px;font-style:normal;font-variant-ligatures:none;fill:[Object GRGBColor];stroke:none;">A</text><clipPath id="_clipPath_73ahE86w1GV6yOtu89oEUhDc70DxcsYU"><path d=" M 0 0 L 500 0 L 500 409 L 0 409 L 0 0 Z " fill="rgb(255,255,255)"/></clipPath><g clip-path="url(#_clipPath_73ahE86w1GV6yOtu89oEUhDc70DxcsYU)"><path d=" M 176.257 470.939 C 176.257 471.384 176.326 471.762 176.463 472.074 C 176.602 472.387 176.79 472.622 177.031 472.779 C 177.272 472.939 177.534 473.018 177.818 473.018 C 178.106 473.018 178.369 472.942 178.608 472.792 C 178.846 472.642 179.037 472.411 179.179 472.102 C 179.32 471.792 179.392 471.403 179.392 470.939 C 179.392 470.503 179.32 470.127 179.179 469.812 C 179.037 469.499 178.844 469.258 178.602 469.091 C 178.36 468.925 178.095 468.843 177.806 468.843 C 177.506 468.843 177.239 468.929 177.002 469.098 C 176.765 469.268 176.582 469.512 176.452 469.83 C 176.321 470.149 176.257 470.518 176.257 470.939 Z  M 179.482 473.347 L 179.482 473.185 C 179.261 473.437 179.045 473.643 178.83 473.8 C 178.616 473.959 178.384 474.079 178.133 474.161 C 177.884 474.244 177.61 474.284 177.314 474.284 C 176.921 474.284 176.557 474.202 176.223 474.036 C 175.89 473.869 175.599 473.632 175.355 473.324 C 175.111 473.015 174.926 472.653 174.799 472.237 C 174.674 471.82 174.611 471.369 174.611 470.885 C 174.611 469.86 174.861 469.06 175.362 468.488 C 175.862 467.917 176.521 467.63 177.338 467.63 C 177.81 467.63 178.209 467.711 178.533 467.872 C 178.858 468.035 179.173 468.285 179.482 468.62 L 179.482 466.2 C 179.482 465.863 179.549 465.61 179.684 465.437 C 179.817 465.265 180.008 465.179 180.256 465.179 C 180.504 465.179 180.696 465.258 180.83 465.416 C 180.964 465.575 181.032 465.807 181.032 466.116 L 181.032 473.347 C 181.032 473.661 180.96 473.894 180.816 474.051 C 180.67 474.206 180.485 474.284 180.256 474.284 C 180.032 474.284 179.847 474.204 179.701 474.041 C 179.555 473.878 179.482 473.648 179.482 473.347 Z " fill="rgb(93,93,93)"/><path d=" M 183.506 470.423 L 186.478 470.423 C 186.439 469.863 186.287 469.443 186.025 469.164 C 185.763 468.886 185.418 468.747 184.988 468.747 C 184.581 468.747 184.244 468.887 183.983 469.171 C 183.72 469.452 183.562 469.87 183.506 470.423 Z  M 186.712 471.354 L 183.506 471.354 C 183.509 471.726 183.584 472.054 183.731 472.339 C 183.876 472.623 184.072 472.838 184.313 472.982 C 184.556 473.126 184.822 473.198 185.115 473.198 C 185.311 473.198 185.49 473.175 185.653 473.129 C 185.815 473.082 185.972 473.011 186.125 472.913 C 186.277 472.815 186.417 472.709 186.545 472.597 C 186.673 472.485 186.839 472.332 187.043 472.14 C 187.127 472.068 187.247 472.032 187.404 472.032 C 187.573 472.032 187.708 472.079 187.811 472.171 C 187.916 472.264 187.969 472.393 187.969 472.562 C 187.969 472.709 187.91 472.881 187.795 473.08 C 187.677 473.279 187.503 473.469 187.268 473.651 C 187.034 473.834 186.74 473.984 186.385 474.105 C 186.032 474.225 185.623 474.285 185.163 474.285 C 184.11 474.285 183.292 473.984 182.706 473.384 C 182.123 472.784 181.83 471.968 181.83 470.939 C 181.83 470.455 181.902 470.005 182.046 469.591 C 182.19 469.176 182.401 468.821 182.676 468.525 C 182.952 468.228 183.294 468.002 183.698 467.842 C 184.102 467.685 184.55 467.607 185.043 467.607 C 185.684 467.607 186.234 467.74 186.691 468.012 C 187.15 468.282 187.493 468.631 187.722 469.059 C 187.95 469.488 188.065 469.925 188.065 470.368 C 188.065 470.781 187.946 471.048 187.71 471.171 C 187.474 471.293 187.141 471.354 186.712 471.354 Z " fill="rgb(93,93,93)"/><path d=" M 194.185 472.139 C 194.185 472.592 194.076 472.979 193.854 473.302 C 193.635 473.625 193.31 473.869 192.879 474.035 C 192.448 474.201 191.925 474.284 191.308 474.284 C 190.72 474.284 190.215 474.194 189.795 474.013 C 189.374 473.834 189.064 473.608 188.864 473.338 C 188.663 473.067 188.564 472.797 188.564 472.524 C 188.564 472.343 188.627 472.19 188.756 472.062 C 188.884 471.935 189.046 471.87 189.242 471.87 C 189.414 471.87 189.546 471.911 189.638 471.996 C 189.73 472.08 189.818 472.198 189.902 472.35 C 190.071 472.643 190.272 472.86 190.507 473.005 C 190.741 473.149 191.059 473.221 191.465 473.221 C 191.793 473.221 192.062 473.148 192.272 473.001 C 192.482 472.855 192.588 472.688 192.588 472.5 C 192.588 472.211 192.479 472.002 192.26 471.87 C 192.043 471.737 191.682 471.611 191.181 471.491 C 190.618 471.351 190.158 471.203 189.803 471.049 C 189.449 470.896 189.166 470.692 188.954 470.44 C 188.742 470.187 188.636 469.876 188.636 469.509 C 188.636 469.181 188.733 468.871 188.929 468.578 C 189.126 468.286 189.416 468.053 189.798 467.878 C 190.18 467.704 190.641 467.617 191.181 467.617 C 191.607 467.617 191.988 467.66 192.326 467.749 C 192.665 467.837 192.947 467.956 193.173 468.104 C 193.399 468.252 193.572 468.416 193.689 468.595 C 193.808 468.775 193.866 468.951 193.866 469.125 C 193.866 469.313 193.803 469.467 193.678 469.587 C 193.552 469.707 193.373 469.768 193.14 469.768 C 192.971 469.768 192.829 469.72 192.711 469.623 C 192.593 469.527 192.458 469.383 192.304 469.19 C 192.181 469.031 192.035 468.902 191.867 468.806 C 191.699 468.709 191.471 468.662 191.181 468.662 C 190.885 468.662 190.639 468.725 190.443 468.852 C 190.247 468.977 190.149 469.134 190.149 469.322 C 190.149 469.496 190.221 469.636 190.365 469.746 C 190.509 469.856 190.703 469.948 190.948 470.019 C 191.192 470.091 191.528 470.179 191.958 470.283 C 192.465 470.408 192.881 470.556 193.203 470.728 C 193.525 470.899 193.77 471.103 193.937 471.338 C 194.102 471.572 194.185 471.839 194.185 472.139 Z " fill="rgb(93,93,93)"/><path d=" M 196.671 468.548 L 196.671 473.287 C 196.671 473.615 196.594 473.864 196.437 474.032 C 196.28 474.2 196.083 474.284 195.842 474.284 C 195.601 474.284 195.406 474.199 195.256 474.027 C 195.106 473.854 195.031 473.607 195.031 473.287 L 195.031 468.596 C 195.031 468.272 195.106 468.027 195.256 467.863 C 195.406 467.699 195.601 467.617 195.842 467.617 C 196.083 467.617 196.28 467.699 196.437 467.863 C 196.594 468.027 196.671 468.256 196.671 468.548 Z  M 195.86 466.855 C 195.631 466.855 195.436 466.784 195.275 466.644 C 195.112 466.504 195.031 466.306 195.031 466.049 C 195.031 465.817 195.114 465.626 195.28 465.476 C 195.447 465.325 195.64 465.25 195.86 465.25 C 196.072 465.25 196.26 465.318 196.424 465.454 C 196.589 465.592 196.671 465.789 196.671 466.049 C 196.671 466.302 196.59 466.499 196.43 466.641 C 196.27 466.783 196.08 466.855 195.86 466.855 Z " fill="rgb(93,93,93)"/><path d=" M 199.103 470.897 C 199.103 471.562 199.248 472.065 199.538 472.405 C 199.828 472.746 200.203 472.915 200.664 472.915 C 200.936 472.915 201.194 472.842 201.436 472.696 C 201.679 472.549 201.876 472.329 202.028 472.035 C 202.179 471.74 202.256 471.384 202.256 470.964 C 202.256 470.295 202.109 469.773 201.814 469.402 C 201.519 469.029 201.133 468.843 200.652 468.843 C 200.183 468.843 199.808 469.021 199.527 469.378 C 199.243 469.734 199.103 470.241 199.103 470.897 Z  M 203.855 468.819 L 203.855 473.581 C 203.855 474.126 203.796 474.595 203.679 474.988 C 203.563 475.379 203.378 475.705 203.12 475.96 C 202.864 476.216 202.529 476.407 202.115 476.53 C 201.701 476.655 201.185 476.717 200.568 476.717 C 200.003 476.717 199.499 476.639 199.055 476.48 C 198.61 476.322 198.268 476.118 198.027 475.868 C 197.788 475.617 197.667 475.36 197.667 475.096 C 197.667 474.895 197.735 474.732 197.871 474.607 C 198.007 474.48 198.172 474.417 198.364 474.417 C 198.604 474.417 198.814 474.523 198.995 474.735 C 199.082 474.843 199.173 474.953 199.268 475.063 C 199.362 475.174 199.466 475.267 199.58 475.346 C 199.694 475.423 199.832 475.481 199.991 475.519 C 200.151 475.556 200.336 475.576 200.545 475.576 C 200.968 475.576 201.298 475.517 201.532 475.399 C 201.766 475.281 201.931 475.115 202.025 474.903 C 202.119 474.692 202.174 474.465 202.19 474.222 C 202.206 473.979 202.218 473.59 202.225 473.053 C 201.973 473.405 201.683 473.674 201.352 473.858 C 201.021 474.042 200.628 474.134 200.172 474.134 C 199.624 474.134 199.144 473.994 198.734 473.714 C 198.323 473.434 198.007 473.041 197.788 472.537 C 197.567 472.032 197.457 471.45 197.457 470.789 C 197.457 470.297 197.524 469.852 197.658 469.455 C 197.793 469.059 197.984 468.725 198.232 468.452 C 198.48 468.18 198.766 467.975 199.09 467.837 C 199.414 467.699 199.771 467.63 200.16 467.63 C 200.623 467.63 201.026 467.719 201.367 467.897 C 201.707 468.075 202.024 468.355 202.317 468.735 L 202.317 468.512 C 202.317 468.228 202.386 468.008 202.526 467.851 C 202.666 467.696 202.848 467.618 203.067 467.618 C 203.383 467.618 203.593 467.721 203.697 467.926 C 203.802 468.133 203.855 468.431 203.855 468.819 Z " fill="rgb(93,93,93)"/><path d=" M 206.46 468.524 L 206.46 468.722 C 206.748 468.342 207.064 468.063 207.406 467.884 C 207.748 467.706 208.141 467.617 208.586 467.617 C 209.019 467.617 209.405 467.711 209.746 467.899 C 210.085 468.088 210.341 468.354 210.508 468.697 C 210.617 468.898 210.687 469.115 210.718 469.347 C 210.751 469.579 210.767 469.875 210.767 470.235 L 210.767 473.287 C 210.767 473.615 210.692 473.864 210.541 474.032 C 210.392 474.2 210.197 474.284 209.955 474.284 C 209.711 474.284 209.514 474.198 209.362 474.026 C 209.208 473.854 209.133 473.607 209.133 473.287 L 209.133 470.553 C 209.133 470.013 209.058 469.6 208.908 469.314 C 208.757 469.028 208.459 468.884 208.009 468.884 C 207.717 468.884 207.452 468.971 207.211 469.145 C 206.971 469.32 206.794 469.559 206.683 469.864 C 206.602 470.108 206.563 470.564 206.563 471.233 L 206.563 473.287 C 206.563 473.619 206.484 473.869 206.331 474.036 C 206.177 474.202 205.978 474.284 205.734 474.284 C 205.497 474.284 205.303 474.198 205.151 474.026 C 204.999 473.854 204.922 473.607 204.922 473.287 L 204.922 468.548 C 204.922 468.236 204.991 468.002 205.127 467.848 C 205.263 467.694 205.449 467.617 205.685 467.617 C 205.83 467.617 205.96 467.651 206.076 467.719 C 206.191 467.787 206.286 467.889 206.355 468.025 C 206.425 468.161 206.46 468.329 206.46 468.524 Z " fill="rgb(93,93,93)"/><path d=" M 213.229 470.423 L 216.202 470.423 C 216.162 469.863 216.011 469.443 215.749 469.164 C 215.487 468.886 215.141 468.747 214.713 468.747 C 214.304 468.747 213.968 468.887 213.706 469.171 C 213.444 469.452 213.285 469.87 213.229 470.423 Z  M 216.436 471.354 L 213.229 471.354 C 213.234 471.726 213.308 472.054 213.454 472.339 C 213.601 472.623 213.795 472.838 214.037 472.982 C 214.279 473.126 214.547 473.198 214.838 473.198 C 215.035 473.198 215.214 473.175 215.377 473.129 C 215.539 473.082 215.695 473.011 215.848 472.913 C 216 472.815 216.14 472.709 216.269 472.597 C 216.396 472.485 216.563 472.332 216.767 472.14 C 216.851 472.068 216.971 472.032 217.127 472.032 C 217.296 472.032 217.432 472.079 217.536 472.171 C 217.64 472.264 217.692 472.393 217.692 472.562 C 217.692 472.709 217.633 472.881 217.517 473.08 C 217.401 473.279 217.226 473.469 216.991 473.651 C 216.758 473.834 216.464 473.984 216.109 474.105 C 215.755 474.225 215.347 474.285 214.887 474.285 C 213.834 474.285 213.015 473.984 212.43 473.384 C 211.846 472.784 211.553 471.968 211.553 470.939 C 211.553 470.455 211.626 470.005 211.769 469.591 C 211.914 469.176 212.124 468.821 212.4 468.525 C 212.677 468.228 213.017 468.002 213.421 467.842 C 213.825 467.685 214.274 467.607 214.767 467.607 C 215.408 467.607 215.956 467.74 216.415 468.012 C 216.874 468.282 217.218 468.631 217.446 469.059 C 217.674 469.488 217.788 469.925 217.788 470.368 C 217.788 470.781 217.67 471.048 217.433 471.171 C 217.197 471.293 216.865 471.354 216.436 471.354 Z " fill="rgb(93,93,93)"/><path d=" M 219.895 470.939 C 219.895 471.384 219.964 471.762 220.103 472.074 C 220.24 472.387 220.43 472.622 220.671 472.779 C 220.91 472.939 221.172 473.018 221.456 473.018 C 221.746 473.018 222.008 472.942 222.247 472.792 C 222.485 472.642 222.675 472.411 222.817 472.102 C 222.96 471.792 223.03 471.403 223.03 470.939 C 223.03 470.503 222.96 470.127 222.817 469.812 C 222.675 469.499 222.482 469.258 222.241 469.091 C 221.998 468.925 221.733 468.843 221.445 468.843 C 221.145 468.843 220.876 468.929 220.64 469.098 C 220.403 469.268 220.22 469.512 220.09 469.83 C 219.96 470.149 219.895 470.518 219.895 470.939 Z  M 223.121 473.347 L 223.121 473.185 C 222.9 473.437 222.683 473.643 222.469 473.8 C 222.254 473.959 222.023 474.079 221.772 474.161 C 221.523 474.244 221.249 474.284 220.953 474.284 C 220.56 474.284 220.197 474.202 219.863 474.036 C 219.528 473.869 219.239 473.632 218.994 473.324 C 218.75 473.015 218.565 472.653 218.439 472.237 C 218.313 471.82 218.25 471.369 218.25 470.885 C 218.25 469.86 218.499 469.06 219 468.488 C 219.501 467.917 220.16 467.63 220.977 467.63 C 221.449 467.63 221.848 467.711 222.172 467.872 C 222.496 468.035 222.812 468.285 223.121 468.62 L 223.121 466.2 C 223.121 465.863 223.189 465.61 223.322 465.437 C 223.456 465.265 223.647 465.179 223.896 465.179 C 224.144 465.179 224.335 465.258 224.468 465.416 C 224.603 465.575 224.67 465.807 224.67 466.116 L 224.67 473.347 C 224.67 473.661 224.598 473.894 224.454 474.051 C 224.31 474.206 224.124 474.284 223.896 474.284 C 223.671 474.284 223.486 474.204 223.34 474.041 C 223.193 473.878 223.121 473.648 223.121 473.347 Z " fill="rgb(93,93,93)"/><path d=" M 229.901 470.987 C 229.901 471.639 230.049 472.141 230.348 472.49 C 230.646 472.842 231.039 473.018 231.523 473.018 C 231.935 473.018 232.29 472.838 232.588 472.479 C 232.887 472.121 233.036 471.608 233.036 470.939 C 233.036 470.506 232.975 470.134 232.85 469.821 C 232.726 469.509 232.55 469.268 232.322 469.098 C 232.094 468.928 231.827 468.843 231.523 468.843 C 231.21 468.843 230.931 468.928 230.688 469.098 C 230.443 469.268 230.251 469.514 230.111 469.837 C 229.971 470.158 229.901 470.542 229.901 470.987 Z  M 229.823 466.116 L 229.823 468.62 C 230.131 468.3 230.445 468.054 230.766 467.884 C 231.086 467.715 231.482 467.629 231.955 467.629 C 232.5 467.629 232.977 467.758 233.388 468.016 C 233.797 468.275 234.116 468.65 234.342 469.14 C 234.568 469.63 234.682 470.212 234.682 470.885 C 234.682 471.381 234.62 471.836 234.493 472.251 C 234.366 472.665 234.183 473.025 233.944 473.329 C 233.702 473.633 233.411 473.869 233.069 474.036 C 232.727 474.202 232.349 474.284 231.937 474.284 C 231.685 474.284 231.447 474.254 231.225 474.194 C 231.003 474.134 230.814 474.056 230.658 473.956 C 230.502 473.859 230.368 473.758 230.258 473.654 C 230.148 473.55 230.002 473.393 229.823 473.185 L 229.823 473.347 C 229.823 473.655 229.749 473.889 229.6 474.048 C 229.453 474.205 229.264 474.284 229.036 474.284 C 228.804 474.284 228.618 474.205 228.48 474.048 C 228.342 473.889 228.273 473.655 228.273 473.347 L 228.273 466.187 C 228.273 465.855 228.34 465.604 228.474 465.433 C 228.608 465.264 228.795 465.179 229.036 465.179 C 229.288 465.179 229.482 465.259 229.618 465.421 C 229.753 465.585 229.823 465.815 229.823 466.116 Z " fill="rgb(93,93,93)"/><path d=" M 236.808 474.489 L 236.958 474.123 L 234.94 469.041 C 234.816 468.749 234.755 468.536 234.755 468.404 C 234.755 468.264 234.79 468.134 234.861 468.015 C 234.934 467.894 235.033 467.797 235.159 467.726 C 235.285 467.653 235.416 467.618 235.553 467.618 C 235.789 467.618 235.967 467.693 236.087 467.842 C 236.208 467.993 236.314 468.207 236.405 468.488 L 237.794 472.525 L 239.108 468.77 C 239.213 468.467 239.307 468.228 239.39 468.056 C 239.475 467.883 239.564 467.767 239.658 467.708 C 239.752 467.648 239.885 467.618 240.058 467.618 C 240.183 467.618 240.301 467.65 240.415 467.717 C 240.529 467.783 240.618 467.872 240.679 467.984 C 240.74 468.096 240.773 468.214 240.773 468.338 C 240.756 468.414 240.731 468.522 240.694 468.663 C 240.658 468.803 240.614 468.946 240.562 469.089 L 238.424 474.687 C 238.24 475.179 238.059 475.565 237.883 475.846 C 237.706 476.126 237.475 476.343 237.184 476.492 C 236.893 476.642 236.501 476.718 236.009 476.718 C 235.529 476.718 235.168 476.665 234.929 476.562 C 234.687 476.457 234.567 476.266 234.567 475.991 C 234.567 475.803 234.625 475.657 234.74 475.555 C 234.853 475.453 235.022 475.401 235.246 475.401 C 235.335 475.401 235.421 475.414 235.505 475.438 C 235.609 475.462 235.699 475.474 235.774 475.474 C 235.963 475.474 236.111 475.447 236.22 475.389 C 236.328 475.334 236.423 475.237 236.511 475.098 C 236.597 474.962 236.696 474.757 236.808 474.489 Z " fill="rgb(93,93,93)"/><path d=" M 260.563 467.759 L 260.954 467.759 L 260.954 467.266 C 260.954 466.752 261.017 466.345 261.147 466.042 C 261.277 465.739 261.499 465.519 261.809 465.381 C 262.12 465.243 262.545 465.174 263.084 465.174 C 264.046 465.174 264.523 465.407 264.523 465.879 C 264.523 466.03 264.472 466.16 264.371 466.268 C 264.273 466.375 264.154 466.43 264.018 466.43 C 263.955 466.43 263.841 466.418 263.684 466.392 C 263.534 466.372 263.398 466.357 263.29 466.357 C 262.995 466.357 262.805 466.445 262.718 466.619 C 262.638 466.793 262.595 467.042 262.595 467.368 L 262.595 467.759 L 262.995 467.759 C 263.621 467.759 263.932 467.947 263.932 468.325 C 263.932 468.59 263.852 468.762 263.683 468.835 C 263.517 468.906 263.288 468.942 262.995 468.942 L 262.595 468.942 L 262.595 473.288 C 262.595 473.611 262.518 473.857 262.361 474.027 C 262.208 474.199 262.01 474.283 261.764 474.283 C 261.533 474.283 261.34 474.199 261.184 474.027 C 261.029 473.857 260.954 473.611 260.954 473.288 L 260.954 468.942 L 260.502 468.942 C 260.257 468.942 260.071 468.889 259.938 468.777 C 259.806 468.668 259.739 468.524 259.739 468.349 C 259.739 467.954 260.013 467.759 260.563 467.759 Z " fill="rgb(93,93,93)"/><path d=" M 265.932 471.917 L 265.932 473.288 C 265.932 473.619 265.848 473.869 265.695 474.034 C 265.539 474.202 265.342 474.283 265.103 474.283 C 264.86 474.283 264.668 474.201 264.515 474.03 C 264.366 473.864 264.288 473.615 264.288 473.288 L 264.288 468.72 C 264.288 467.983 264.553 467.614 265.085 467.614 C 265.359 467.614 265.555 467.7 265.676 467.872 C 265.796 468.045 265.862 468.298 265.876 468.636 C 266.071 468.298 266.271 468.045 266.476 467.872 C 266.686 467.7 266.958 467.614 267.305 467.614 C 267.651 467.614 267.983 467.7 268.307 467.872 C 268.633 468.045 268.795 468.275 268.795 468.558 C 268.795 468.757 268.725 468.925 268.588 469.053 C 268.449 469.185 268.301 469.25 268.141 469.25 C 268.078 469.25 267.932 469.21 267.704 469.136 C 267.473 469.064 267.269 469.026 267.094 469.026 C 266.855 469.026 266.657 469.092 266.506 469.214 C 266.353 469.345 266.233 469.529 266.149 469.776 C 266.067 470.026 266.011 470.323 265.976 470.664 C 265.946 471.006 265.932 471.425 265.932 471.917 Z " fill="rgb(93,93,93)"/><path d=" M 270.261 470.419 L 273.234 470.419 C 273.194 469.859 273.046 469.439 272.783 469.163 C 272.519 468.883 272.177 468.746 271.745 468.746 C 271.338 468.746 271.001 468.884 270.738 469.168 C 270.476 469.45 270.316 469.867 270.261 470.419 Z  M 273.47 471.352 L 270.261 471.352 C 270.267 471.723 270.34 472.054 270.486 472.337 C 270.634 472.62 270.827 472.834 271.07 472.98 C 271.313 473.124 271.579 473.195 271.872 473.195 C 272.069 473.195 272.247 473.174 272.409 473.125 C 272.569 473.081 272.729 473.008 272.881 472.909 C 273.034 472.813 273.171 472.708 273.301 472.593 C 273.429 472.483 273.596 472.33 273.8 472.138 C 273.885 472.066 274.006 472.029 274.159 472.029 C 274.33 472.029 274.464 472.076 274.57 472.169 C 274.675 472.262 274.725 472.391 274.725 472.56 C 274.725 472.708 274.668 472.88 274.554 473.077 C 274.436 473.278 274.262 473.467 274.027 473.65 C 273.79 473.83 273.497 473.983 273.143 474.102 C 272.789 474.222 272.38 474.283 271.92 474.283 C 270.865 474.283 270.047 473.983 269.463 473.384 C 268.879 472.782 268.583 471.966 268.583 470.937 C 268.583 470.453 268.657 470.002 268.803 469.587 C 268.945 469.171 269.155 468.818 269.434 468.52 C 269.71 468.222 270.049 467.996 270.454 467.839 C 270.857 467.68 271.305 467.602 271.8 467.602 C 272.439 467.602 272.989 467.737 273.448 468.01 C 273.906 468.277 274.254 468.628 274.478 469.056 C 274.707 469.487 274.821 469.922 274.821 470.368 C 274.821 470.778 274.702 471.045 274.466 471.168 C 274.23 471.291 273.898 471.352 273.47 471.352 Z " fill="rgb(93,93,93)"/><path d=" M 277.084 470.419 L 280.056 470.419 C 280.017 469.859 279.864 469.439 279.604 469.163 C 279.338 468.883 278.996 468.746 278.565 468.746 C 278.158 468.746 277.821 468.884 277.558 469.168 C 277.297 469.45 277.136 469.867 277.084 470.419 Z  M 280.292 471.352 L 277.084 471.352 C 277.086 471.723 277.163 472.054 277.308 472.337 C 277.454 472.62 277.648 472.834 277.89 472.98 C 278.133 473.124 278.399 473.195 278.693 473.195 C 278.889 473.195 279.069 473.174 279.228 473.125 C 279.392 473.081 279.547 473.008 279.702 472.909 C 279.856 472.813 279.993 472.708 280.122 472.593 C 280.248 472.483 280.416 472.33 280.62 472.138 C 280.706 472.066 280.827 472.029 280.98 472.029 C 281.15 472.029 281.286 472.076 281.392 472.169 C 281.495 472.262 281.543 472.391 281.543 472.56 C 281.543 472.708 281.488 472.88 281.371 473.077 C 281.258 473.278 281.083 473.467 280.846 473.65 C 280.612 473.83 280.314 473.983 279.963 474.102 C 279.611 474.222 279.199 474.283 278.74 474.283 C 277.686 474.283 276.869 473.983 276.282 473.384 C 275.698 472.782 275.403 471.966 275.403 470.937 C 275.403 470.453 275.476 470.002 275.623 469.587 C 275.766 469.171 275.977 468.818 276.254 468.52 C 276.528 468.222 276.869 467.996 277.274 467.839 C 277.677 467.68 278.128 467.602 278.62 467.602 C 279.258 467.602 279.808 467.737 280.273 468.01 C 280.728 468.277 281.073 468.628 281.298 469.056 C 281.525 469.487 281.643 469.922 281.643 470.368 C 281.643 470.778 281.521 471.045 281.288 471.168 C 281.051 471.291 280.719 471.352 280.292 471.352 Z " fill="rgb(93,93,93)"/><path d=" M 287.099 470.919 C 287.099 470.486 287.031 470.114 286.899 469.805 C 286.768 469.493 286.585 469.256 286.353 469.092 C 286.119 468.925 285.858 468.841 285.573 468.841 C 285.121 468.841 284.739 469.02 284.429 469.374 C 284.117 469.733 283.961 470.257 283.961 470.951 C 283.961 471.6 284.116 472.11 284.427 472.472 C 284.734 472.835 285.113 473.016 285.573 473.016 C 285.844 473.016 286.098 472.936 286.331 472.78 C 286.565 472.621 286.751 472.384 286.888 472.067 C 287.029 471.75 287.099 471.368 287.099 470.919 Z  M 283.884 468.537 L 283.884 468.733 C 284.191 468.354 284.512 468.074 284.847 467.896 C 285.176 467.717 285.555 467.626 285.975 467.626 C 286.478 467.626 286.946 467.757 287.371 468.016 C 287.795 468.278 288.129 468.659 288.375 469.159 C 288.622 469.662 288.746 470.253 288.746 470.938 C 288.746 471.441 288.675 471.907 288.533 472.33 C 288.392 472.752 288.193 473.106 287.946 473.392 C 287.698 473.677 287.406 473.899 287.067 474.053 C 286.725 474.206 286.364 474.283 285.975 474.283 C 285.508 474.283 285.113 474.19 284.795 474.001 C 284.478 473.816 284.174 473.537 283.884 473.175 L 283.884 475.636 C 283.884 476.355 283.621 476.718 283.098 476.718 C 282.786 476.718 282.586 476.625 282.483 476.44 C 282.387 476.25 282.335 475.983 282.335 475.624 L 282.335 468.545 C 282.335 468.232 282.402 468.002 282.537 467.845 C 282.673 467.693 282.861 467.614 283.098 467.614 C 283.33 467.614 283.518 467.693 283.663 467.851 C 283.812 468.012 283.884 468.237 283.884 468.537 Z " fill="rgb(93,93,93)"/><path d=" M 291.209 468.544 L 291.209 473.288 C 291.209 473.614 291.131 473.863 290.976 474.029 C 290.818 474.2 290.621 474.283 290.38 474.283 C 290.139 474.283 289.947 474.198 289.793 474.026 C 289.645 473.851 289.569 473.605 289.569 473.288 L 289.569 468.591 C 289.569 468.269 289.645 468.025 289.793 467.861 C 289.947 467.694 290.139 467.613 290.38 467.613 C 290.621 467.613 290.818 467.694 290.976 467.861 C 291.131 468.025 291.209 468.254 291.209 468.544 Z  M 290.398 466.85 C 290.168 466.85 289.974 466.778 289.813 466.638 C 289.65 466.498 289.569 466.302 289.569 466.046 C 289.569 465.813 289.651 465.622 289.819 465.47 C 289.985 465.322 290.177 465.246 290.398 465.246 C 290.611 465.246 290.799 465.313 290.963 465.448 C 291.127 465.586 291.209 465.786 291.209 466.046 C 291.209 466.299 291.129 466.495 290.97 466.638 C 290.81 466.778 290.62 466.85 290.398 466.85 Z " fill="rgb(93,93,93)"/><path d=" M 296.497 473.535 L 295.052 471.154 L 294.161 471.994 L 294.161 473.299 C 294.161 473.615 294.078 473.857 293.911 474.027 C 293.749 474.199 293.553 474.283 293.338 474.283 C 293.086 474.283 292.886 474.201 292.742 474.03 C 292.599 473.863 292.526 473.615 292.526 473.288 L 292.526 466.291 C 292.526 465.929 292.598 465.652 292.734 465.461 C 292.876 465.268 293.079 465.174 293.338 465.174 C 293.591 465.174 293.788 465.261 293.938 465.434 C 294.086 465.606 294.161 465.861 294.161 466.195 L 294.161 470.174 L 296.006 468.238 C 296.235 468 296.406 467.832 296.528 467.746 C 296.648 467.658 296.794 467.614 296.964 467.614 C 297.171 467.614 297.34 467.68 297.48 467.809 C 297.614 467.94 297.684 468.103 297.684 468.298 C 297.684 468.538 297.459 468.86 297.015 469.261 L 296.145 470.059 L 297.827 472.704 C 297.949 472.903 298.041 473.048 298.094 473.151 C 298.147 473.251 298.177 473.353 298.177 473.443 C 298.177 473.704 298.104 473.907 297.962 474.06 C 297.82 474.209 297.63 474.283 297.4 474.283 C 297.201 474.283 297.045 474.232 296.937 474.122 C 296.83 474.012 296.68 473.816 296.497 473.535 Z " fill="rgb(93,93,93)"/><path d=" M 300.06 474.283 C 299.812 474.283 299.6 474.204 299.419 474.042 C 299.24 473.885 299.148 473.66 299.148 473.369 C 299.148 473.125 299.235 472.915 299.408 472.739 C 299.582 472.563 299.792 472.475 300.045 472.475 C 300.296 472.475 300.509 472.563 300.691 472.736 C 300.867 472.91 300.958 473.123 300.958 473.369 C 300.958 473.655 300.867 473.88 300.691 474.04 C 300.509 474.204 300.3 474.283 300.06 474.283 Z " fill="rgb(93,93,93)"/><path d=" M 308.217 472.254 C 308.217 472.456 308.156 472.676 308.032 472.908 C 307.911 473.141 307.724 473.362 307.472 473.571 C 307.223 473.781 306.909 473.953 306.527 474.08 C 306.148 474.207 305.717 474.274 305.243 474.274 C 304.227 474.274 303.436 473.976 302.867 473.387 C 302.301 472.796 302.016 472.003 302.016 471.01 C 302.016 470.335 302.145 469.741 302.407 469.224 C 302.665 468.709 303.042 468.308 303.534 468.026 C 304.027 467.743 304.619 467.603 305.301 467.603 C 305.726 467.603 306.115 467.664 306.472 467.789 C 306.827 467.912 307.125 468.074 307.373 468.268 C 307.618 468.467 307.807 468.676 307.936 468.896 C 308.067 469.118 308.13 469.327 308.13 469.521 C 308.13 469.715 308.058 469.882 307.913 470.019 C 307.765 470.154 307.587 470.223 307.383 470.223 C 307.245 470.223 307.131 470.187 307.041 470.118 C 306.95 470.048 306.849 469.935 306.738 469.776 C 306.538 469.473 306.33 469.243 306.109 469.094 C 305.891 468.94 305.616 468.864 305.278 468.864 C 304.796 468.864 304.403 469.053 304.106 469.432 C 303.81 469.808 303.661 470.33 303.661 470.984 C 303.661 471.293 303.7 471.578 303.777 471.836 C 303.851 472.093 303.961 472.314 304.106 472.496 C 304.251 472.678 304.424 472.816 304.627 472.91 C 304.833 473.007 305.059 473.053 305.301 473.053 C 305.63 473.053 305.913 472.977 306.146 472.825 C 306.384 472.672 306.59 472.441 306.769 472.128 C 306.871 471.944 306.977 471.801 307.092 471.696 C 307.207 471.592 307.35 471.537 307.519 471.537 C 307.719 471.537 307.886 471.616 308.017 471.767 C 308.149 471.919 308.217 472.083 308.217 472.254 Z " fill="rgb(93,93,93)"/><path d=" M 313.647 470.95 C 313.647 470.28 313.5 469.76 313.206 469.389 C 312.913 469.012 312.517 468.827 312.021 468.827 C 311.7 468.827 311.416 468.911 311.171 469.076 C 310.927 469.242 310.741 469.488 310.609 469.812 C 310.477 470.137 310.41 470.517 310.41 470.95 C 310.41 471.379 310.475 471.752 310.605 472.072 C 310.737 472.395 310.923 472.639 311.165 472.809 C 311.409 472.978 311.693 473.065 312.021 473.065 C 312.517 473.065 312.913 472.878 313.206 472.501 C 313.5 472.127 313.647 471.609 313.647 470.95 Z  M 315.294 470.95 C 315.294 471.437 315.217 471.889 315.069 472.303 C 314.912 472.715 314.695 473.07 314.406 473.365 C 314.118 473.661 313.772 473.888 313.374 474.048 C 312.97 474.204 312.52 474.284 312.021 474.284 C 311.524 474.284 311.076 474.204 310.679 474.042 C 310.285 473.885 309.939 473.654 309.65 473.358 C 309.36 473.057 309.14 472.704 308.986 472.298 C 308.841 471.891 308.764 471.441 308.764 470.95 C 308.764 470.453 308.842 469.998 308.991 469.585 C 309.144 469.171 309.363 468.819 309.649 468.527 C 309.934 468.235 310.277 468.011 310.679 467.851 C 311.086 467.693 311.532 467.614 312.021 467.614 C 312.517 467.614 312.968 467.693 313.374 467.856 C 313.777 468.014 314.121 468.244 314.412 468.538 C 314.702 468.838 314.92 469.189 315.07 469.595 C 315.218 470.008 315.294 470.456 315.294 470.95 Z " fill="rgb(93,93,93)"/><path d=" M 321.55 471.071 L 321.55 473.25 C 321.55 473.596 321.474 473.852 321.316 474.027 C 321.158 474.199 320.955 474.285 320.697 474.285 C 320.45 474.285 320.246 474.199 320.096 474.027 C 319.94 473.852 319.861 473.596 319.861 473.25 L 319.861 470.638 C 319.861 470.224 319.848 469.903 319.821 469.673 C 319.792 469.45 319.715 469.259 319.593 469.115 C 319.468 468.966 319.27 468.893 319.004 468.893 C 318.465 468.893 318.114 469.076 317.942 469.45 C 317.774 469.815 317.687 470.344 317.687 471.036 L 317.687 473.25 C 317.687 473.591 317.608 473.849 317.458 474.024 C 317.3 474.197 317.099 474.285 316.847 474.285 C 316.597 474.285 316.394 474.197 316.236 474.024 C 316.077 473.849 315.999 473.591 315.999 473.25 L 315.999 468.558 C 315.999 468.249 316.069 468.014 316.211 467.856 C 316.355 467.693 316.543 467.614 316.773 467.614 C 316.999 467.614 317.185 467.692 317.337 467.839 C 317.486 467.989 317.561 468.197 317.561 468.461 L 317.561 468.616 C 317.848 468.278 318.152 468.027 318.474 467.87 C 318.8 467.705 319.159 467.626 319.558 467.626 C 319.969 467.626 320.323 467.708 320.618 467.872 C 320.915 468.037 321.158 468.287 321.352 468.616 C 321.629 468.283 321.927 468.033 322.244 467.87 C 322.56 467.707 322.91 467.626 323.295 467.626 C 323.741 467.626 324.13 467.716 324.455 467.891 C 324.777 468.067 325.02 468.321 325.18 468.647 C 325.32 468.946 325.389 469.412 325.389 470.049 L 325.389 473.25 C 325.389 473.596 325.312 473.852 325.157 474.027 C 325.001 474.199 324.793 474.285 324.538 474.285 C 324.288 474.285 324.086 474.197 323.927 474.024 C 323.769 473.849 323.69 473.591 323.69 473.25 L 323.69 470.492 C 323.69 470.138 323.675 469.858 323.645 469.646 C 323.615 469.433 323.534 469.254 323.404 469.111 C 323.27 468.966 323.068 468.893 322.801 468.893 C 322.585 468.893 322.38 468.96 322.185 469.087 C 321.991 469.213 321.84 469.389 321.729 469.602 C 321.612 469.878 321.55 470.369 321.55 471.071 Z " fill="rgb(93,93,93)"/><path d=" M 245.215 470.553 C 245.214 470.551 245.214 470.548 245.214 470.542 C 245.214 470.548 245.214 470.551 245.215 470.553 Z " fill="rgb(93,93,93)"/><path d=" M 245.298 471.077 L 245.3 471.077 C 245.268 470.927 245.244 470.779 245.225 470.633 C 245.244 470.78 245.268 470.929 245.298 471.077 Z " fill="rgb(93,93,93)"/><path d=" M 245.84 472.599 C 245.837 472.593 245.834 472.585 245.83 472.578 C 245.834 472.585 245.837 472.593 245.84 472.599 Z " fill="rgb(93,93,93)"/><path d=" M 245.789 472.498 C 245.774 472.47 245.762 472.441 245.747 472.413 C 245.762 472.443 245.774 472.47 245.789 472.498 Z " fill="rgb(93,93,93)"/><path d=" M 245.451 471.663 C 245.531 471.916 245.628 472.161 245.74 472.395 C 245.625 472.157 245.531 471.91 245.453 471.663 L 245.451 471.663 Z " fill="rgb(93,93,93)"/><path d=" M 251.563 464.269 C 251.88 464.269 252.113 464.295 252.382 464.34 L 252.458 463.858 C 252.458 463.858 251.717 463.629 250.744 463.709 L 250.668 463.446 C 250.97 463.383 251.197 463.114 251.197 462.792 C 251.197 462.425 250.897 462.126 250.529 462.126 C 250.16 462.126 249.861 462.425 249.861 462.792 C 249.861 463.114 250.088 463.383 250.39 463.446 L 250.475 463.739 C 249.441 463.881 248.619 464.285 248.619 464.285 L 248.764 464.731 C 249.389 464.523 249.931 464.396 250.424 464.342 C 250.905 464.292 251.268 464.269 251.563 464.269 Z " fill="rgb(93,93,93)"/><path d=" M 245.829 466.709 L 245.833 466.704 C 245.856 466.672 245.88 466.643 245.904 466.614 L 245.706 466.471 L 245.397 466.246 C 245.38 466.27 244.895 466.716 244.511 467.541 C 244.496 467.515 244.476 467.49 244.455 467.466 C 244.34 467.34 244.179 467.275 243.975 467.28 L 243.966 467.28 C 243.839 467.28 243.753 467.238 243.696 467.186 C 243.753 467.115 243.786 467.024 243.786 466.925 C 243.786 466.693 243.597 466.502 243.363 466.502 C 243.13 466.502 242.94 466.693 242.94 466.925 C 242.94 467.16 243.13 467.349 243.363 467.349 C 243.399 467.349 243.434 467.342 243.47 467.335 C 243.573 467.451 243.737 467.551 243.979 467.546 C 244.104 467.545 244.195 467.577 244.256 467.645 C 244.326 467.722 244.35 467.832 244.357 467.915 C 244.356 467.916 244.356 467.918 244.355 467.918 C 244.08 468.671 244.158 469.607 244.158 469.607 L 244.828 469.633 C 244.841 469.293 244.889 468.696 245.063 468.223 C 245.395 467.306 245.811 466.733 245.829 466.709 Z " fill="rgb(93,93,93)"/><path d=" M 257.381 464.828 C 257.148 464.828 256.958 465.017 256.958 465.25 C 256.958 465.287 256.963 465.322 256.973 465.355 C 256.857 465.46 256.756 465.626 256.76 465.868 C 256.762 465.993 256.729 466.083 256.663 466.144 C 256.608 466.192 256.542 466.217 256.475 466.233 C 255.978 465.536 255.365 465.11 255.365 465.11 L 254.885 465.625 C 255.247 465.954 255.618 466.367 255.978 466.884 C 256.227 467.24 256.484 467.699 256.697 468.157 L 257.344 467.85 C 257.344 467.85 257.048 467.119 256.632 466.464 C 256.704 466.439 256.777 466.399 256.841 466.343 C 256.968 466.228 257.03 466.066 257.027 465.863 C 257.026 465.731 257.069 465.642 257.12 465.584 C 257.192 465.639 257.283 465.674 257.381 465.674 C 257.615 465.674 257.805 465.485 257.805 465.25 C 257.805 465.017 257.615 464.828 257.381 464.828 Z " fill="rgb(93,93,93)"/><path d=" M 255.701 470.647 C 254.809 471.082 253.343 471.655 251.413 471.924 C 250.655 472.029 249.92 472.068 249.245 472.068 C 248.365 472.068 247.587 472.003 246.992 471.928 C 246.311 471.842 245.779 471.736 245.454 471.663 C 245.531 471.91 245.626 472.157 245.741 472.396 C 245.742 472.402 245.745 472.409 245.748 472.413 C 245.763 472.441 245.775 472.469 245.79 472.498 C 245.803 472.526 245.817 472.553 245.831 472.577 C 245.835 472.585 245.838 472.593 245.841 472.599 C 246.032 472.96 246.264 473.291 246.525 473.578 C 247.436 474.575 248.363 474.732 248.371 474.733 L 248.387 474.735 L 248.4 474.74 C 248.409 474.743 249.231 475.009 250.482 475.009 C 251.712 475.009 252.92 474.761 254.07 474.271 C 254.922 473.835 255.728 473.173 256.128 472.582 C 256.437 472.125 256.66 471.638 256.792 471.131 C 256.862 470.862 256.918 470.432 256.884 469.978 C 256.634 470.146 256.238 470.386 255.701 470.647 Z " fill="rgb(93,93,93)"/><path d=" M 248.662 466.455 C 249.647 466.455 250.444 467.253 250.444 468.237 C 250.444 469.221 249.647 470.017 248.662 470.017 C 247.679 470.017 246.882 469.221 246.882 468.237 C 246.882 467.253 247.679 466.455 248.662 466.455 Z  M 253.874 466.499 C 254.482 466.499 254.976 466.993 254.976 467.601 C 254.976 468.21 254.482 468.704 253.874 468.704 C 253.266 468.704 252.773 468.21 252.773 467.601 C 252.773 466.993 253.266 466.499 253.874 466.499 Z  M 246.115 466.921 C 246.089 466.959 245.702 467.505 245.397 468.345 C 245.169 468.975 245.179 469.891 245.179 469.901 L 245.179 469.903 C 245.179 470.118 245.191 470.331 245.214 470.542 C 245.214 470.547 245.214 470.551 245.215 470.553 C 245.218 470.58 245.223 470.607 245.226 470.634 C 245.244 470.78 245.269 470.928 245.3 471.078 C 245.743 471.189 248.385 471.806 251.338 471.395 C 253.19 471.138 254.595 470.59 255.448 470.176 C 256.158 469.833 256.613 469.521 256.789 469.394 C 256.614 468.743 256.131 467.724 255.687 467.088 C 254.419 465.275 253.052 464.811 252.35 464.695 C 252.082 464.651 251.867 464.626 251.563 464.626 C 251.28 464.626 250.929 464.649 250.461 464.698 C 249.991 464.747 249.467 464.87 248.859 465.075 C 248.007 465.361 247.236 465.807 246.629 466.37 L 246.609 466.389 C 246.519 466.472 246.331 466.646 246.115 466.921 Z " fill="rgb(93,93,93)"/></g></g></svg>