<svg id="Layer_9" height="512" viewBox="0 0 64 64" width="512" xmlns="http://www.w3.org/2000/svg" xmlns:xlink="http://www.w3.org/1999/xlink" data-name="Layer 9"><linearGradient id="linear-gradient" gradientUnits="userSpaceOnUse" x1="8.989" x2="67.989" y1="27.627" y2="28.627"><stop offset="0" stop-color="#1c9698"/><stop offset="1" stop-color="#bdab4b"/></linearGradient><linearGradient id="linear-gradient-2" x1="9.187" x2="68.187" xlink:href="#linear-gradient" y1="15.952" y2="16.952"/><linearGradient id="linear-gradient-3" x1="9.119" x2="68.119" xlink:href="#linear-gradient" y1="19.951" y2="20.951"/><linearGradient id="linear-gradient-4" x1="9.246" x2="68.246" xlink:href="#linear-gradient" y1="12.462" y2="13.462"/><linearGradient id="linear-gradient-5" x1="9.102" x2="68.102" xlink:href="#linear-gradient" y1="20.959" y2="21.959"/><linearGradient id="linear-gradient-6" x1="8.958" x2="67.958" xlink:href="#linear-gradient" y1="29.457" y2="30.457"/><linearGradient id="linear-gradient-7" x1="8.874" x2="67.874" xlink:href="#linear-gradient" y1="34.455" y2="35.455"/><linearGradient id="linear-gradient-8" x1="9.022" x2="68.022" xlink:href="#linear-gradient" y1="25.712" y2="26.712"/><linearGradient id="linear-gradient-9" gradientTransform="matrix(.985 .171 -.171 .985 7.381 -8.825)" x1="8.82" x2="67.82" xlink:href="#linear-gradient" y1="37.623" y2="38.623"/><linearGradient id="linear-gradient-10" x1="8.837" x2="67.837" xlink:href="#linear-gradient" y1="36.591" y2="37.591"/><linearGradient id="linear-gradient-11" x1="8.583" x2="67.583" xlink:href="#linear-gradient" y1="51.612" y2="52.612"/><path d="m33 20h-4a1 1 0 0 0 -1 1v14a1 1 0 0 0 1 1h4a1 1 0 0 0 1-1v-14a1 1 0 0 0 -1-1zm-1 14h-2v-12h2z" fill="url(#linear-gradient)"/><path d="m10 15h4v2h-4z" fill="url(#linear-gradient-2)"/><path d="m10 19h4v2h-4z" fill="url(#linear-gradient-3)"/><path d="m40 12h2v2h-2z" fill="url(#linear-gradient-4)"/><path d="m40 16h2v11h-2z" fill="url(#linear-gradient-5)"/><path d="m40 29h2v2h-2z" fill="url(#linear-gradient-6)"/><path d="m40 33h2v4h-2z" fill="url(#linear-gradient-7)"/><path d="m60.667 44.207a1 1 0 0 0 .168-.747l-5.817-33.5a1.006 1.006 0 0 0 -1.157-.815l-7.861 1.368v-3.513a1 1 0 0 0 -1-1h-8a1 1 0 0 0 -1 1v5h-11a1 1 0 0 0 -1 1v1h-6v-3a1 1 0 0 0 -1-1h-10a1 1 0 0 0 -1 1v34a1 1 0 0 0 1 1h38a1 1 0 0 0 1-1v-28.52l4.982 28.691a1 1 0 0 0 .985.829 1.017 1.017 0 0 0 .172-.015l7.882-1.368a1 1 0 0 0 .646-.41zm-44.667-.207h-8v-2h8zm0-4h-8v-28h8zm8 4h-6v-5h6zm0-7h-6v-2h6zm0-4h-6v-12h6zm0-14h-6v-3h6zm12 25h-10v-2h8v-2h-8v-22h8v-2h-8v-2h10zm8 0h-6v-36h6zm3.307-31.685 5.911-1.026 1.369 7.882-5.911 1.029zm1.711 9.853 5.911-1.026.342 1.97-5.911 1.027zm3.764 21.676-3.082-17.735 5.911-1.026 3.08 17.734z" fill="url(#linear-gradient-8)"/><path d="m53.882 37.404h2v2h-2z" fill="url(#linear-gradient-9)" transform="matrix(.985 -.171 .171 .985 -5.762 9.958)"/><path d="m3 57a8.008 8.008 0 0 0 7.931-7h15.069v-2h-22v-32h-2v40a1 1 0 0 0 1 1zm1-7h4.917a6.017 6.017 0 0 1 -4.917 4.917z" fill="url(#linear-gradient-10)"/><path d="m61 48h-7a1 1 0 0 0 -1 1 8.009 8.009 0 0 0 8 8 1 1 0 0 0 1-1v-7a1 1 0 0 0 -1-1zm-1 6.917a6.017 6.017 0 0 1 -4.917-4.917h4.917z" fill="url(#linear-gradient-11)"/></svg>