<?xml version="1.0"?>
<svg xmlns="http://www.w3.org/2000/svg" id="line" viewBox="0 0 64 64" width="512" height="512"><path d="M15,38h2.11a6.975,6.975,0,0,0,.06,10.054A7,7,0,0,0,18,62H57a1,1,0,0,0,.707-1.707A7.489,7.489,0,0,1,57.442,50H61a1,1,0,0,0,.707-1.707,7.5,7.5,0,0,1,0-10.586A1,1,0,0,0,61,36H54.442a7.489,7.489,0,0,1,.265-10.293A1,1,0,0,0,54,24H40.653a10,10,0,1,0-17.3,0H15a7,7,0,0,0,0,14Zm2,5a5.006,5.006,0,0,1,5-5h2V48H22A5.006,5.006,0,0,1,17,43Zm1,17a5,5,0,0,1,0-10h.11a6.979,6.979,0,0,0,0,10Zm5,0a5,5,0,0,1,0-10h1v5a1,1,0,0,0,1.707.707L28,53.414l2.293,2.293A1,1,0,0,0,32,55V50h2.11a6.979,6.979,0,0,0,0,10Zm3-7.414V38h4V52.586l-1.293-1.293a1,1,0,0,0-1.414,0ZM38,43a6.974,6.974,0,0,0,2.009,4.9,5,5,0,0,1,0-9.8A6.974,6.974,0,0,0,38,43Zm7-5h2.11a6.979,6.979,0,0,0,0,10H45a5,5,0,0,1,0-10ZM34,43a6.977,6.977,0,0,0,2.11,5H32V38h4.11A6.977,6.977,0,0,0,34,43Zm5,17a5,5,0,0,1,0-10h4.11a6.979,6.979,0,0,0,0,10Zm15.938,0H48a5,5,0,0,1,0-10h6.938A9.519,9.519,0,0,0,54.938,60ZM54,38h4.938a9.519,9.519,0,0,0,0,10H52a5,5,0,0,1,0-10ZM45,26h6.938a9.519,9.519,0,0,0,0,10H45a5,5,0,0,1,0-10Zm-7,5a6.977,6.977,0,0,0,2.11,5H37a5,5,0,0,1,0-10h3.11A6.977,6.977,0,0,0,38,31ZM32,11a7.991,7.991,0,0,1,6.235,13H33V23a1,1,0,0,1,1-1,3,3,0,0,0,3-3v-.893a3.082,3.082,0,0,0-2.5-3.066,3,3,0,0,0-2.44.673L32,15.765A3,3,0,0,0,27,18h2a1,1,0,0,1,2,0,1,1,0,0,0,2,0,1,1,0,0,1,1.175-.986A1.085,1.085,0,0,1,35,18.107V19a1,1,0,0,1-1,1,3,3,0,0,0-3,3v1H25.765A7.991,7.991,0,0,1,32,11ZM21,26H32.11a6.979,6.979,0,0,0,0,10H21a5,5,0,0,1,0-10Zm-6,0h1.11a6.979,6.979,0,0,0,0,10H15a5,5,0,0,1,0-10Z"/><rect x="25.451" y="3.104" width="2" height="5" transform="translate(-0.131 10.549) rotate(-22.501)"/><rect x="17.604" y="10.951" width="2" height="5" transform="translate(-0.943 25.491) rotate(-67.499)"/><rect x="42.896" y="12.451" width="5" height="2" transform="translate(-1.691 18.403) rotate(-22.508)"/><rect x="35.049" y="4.604" width="5" height="2" transform="translate(17.998 38.147) rotate(-67.492)"/></svg>
